<svg width="2884" height="255" viewBox="0 0 2884 255" fill="none" xmlns="http://www.w3.org/2000/svg">
<path d="M1404.03 42.8564C1404.03 42.8564 1437.5 59.5 1462 65C1486.5 70.5 1469.15 58.354 1507 54.5C1544.85 50.646 1554.5 254.795 1554.5 254.795L0.0335693 254.794L0.0335762 176.09L0.0335825 104.59L0.0335875 46.5902C0.0335875 46.5902 2.03359 44.0902 4.03359 41.5902C6.03359 39.0902 6.53359 39.0902 13.5336 33.5902C20.5336 28.0902 34.0336 27.0902 36.0336 27.0902C38.0336 27.0902 48.5336 28.5902 53.5336 31.0902C58.5336 33.5902 61.0336 38.0902 64.0336 44.0902C67.0336 50.0902 72.0336 54.5902 72.0336 54.5902C72.0336 54.5902 77.0336 58.0902 85.0336 59.0902C93.0336 60.0902 104.534 53.5902 104.534 53.5902C104.534 53.5902 120.534 39.0902 128.534 35.5902C136.534 32.0902 146.034 34.5902 152.534 39.0902C159.034 43.5902 159.034 55.5902 157.534 69.0902C156.034 82.5901 161.534 89.5902 168.034 95.9559C174.534 102.322 186.034 103.59 196.034 103.59C206.034 103.59 218.034 94.5901 222.534 89.5902C227.034 84.5902 233.034 74.5902 234.034 71.5902C235.034 68.5902 238.534 46.5901 241.034 37.0902C243.534 27.5903 251.534 18.5902 255.034 15.0902C258.534 11.5902 270.534 7.59024 270.534 7.59024C270.534 7.59024 284.534 5.09025 291.034 10.5902C297.534 16.0902 299.034 27.5903 300.534 41.0902C302.034 54.5901 304.534 62.0902 310.534 67.5902C316.534 73.0902 333.034 76.5902 341.034 75.5902C349.034 74.5902 369.534 63.5901 378.034 47.5902C386.534 31.5903 392.034 26.5902 397.034 23.5902C402.034 20.5902 402.534 18.5902 421.034 16.5902C439.534 14.5902 457.534 38.5902 462.534 43.5902C467.534 48.5902 472.534 51.5902 481.034 52.0902C489.534 52.5902 500.534 45.4996 500.534 45.4996C500.534 45.4996 516.533 25.0902 536.533 27.5902C556.533 30.0902 551.533 60.0903 551.533 70.0902C551.533 80.0902 562.033 90.0902 562.033 90.0902C562.033 90.0902 585.033 106.59 608.533 90.0902C632.033 73.5903 632.533 42.5902 634.533 32.7465C636.533 22.9028 643.533 12.0902 652.533 6.09027C661.533 0.0902997 666.533 -1.40976 680.533 1.59023C694.533 4.59021 693.533 28.7153 694.533 36.7777C695.533 44.8402 697.033 54.5902 701.533 58.5902C706.033 62.5902 716.533 69.5902 734.533 68.5902C752.533 67.5902 768.033 47.0902 778.033 31.5902C788.033 16.0903 798.533 12.5903 798.533 12.5903C798.533 12.5903 809.033 10.0903 821.033 10.0903C833.033 10.0903 837.533 15.0903 841.033 18.5903C844.533 22.0902 853.033 34.0903 853.033 34.0903C853.033 34.0903 858.533 43.5903 868.533 47.5902C878.533 51.5902 887.033 17.0903 890.533 12.5903C894.033 8.0903 896.533 3.59023 911.533 1.59025C926.533 -0.409744 934.533 20.5903 934.533 20.5903C934.533 20.5903 937.033 64.0903 946.033 74.5902C955.033 85.0902 965.033 76.5902 966.533 74.0903C968.033 71.5903 969.533 36.0902 998.931 28.3542C1028.33 20.6181 1043.54 35.7553 1048.74 53.3578C1061.3 71.7604 1075.27 64.3594 1080.68 58.3586C1089.88 47.8571 1114.14 30.0546 1137.53 42.8564C1160.91 55.6582 1161.71 75.8612 1159.18 84.3624C1155.57 91.3634 1153.66 106.066 1174.88 108.866C1201.3 109.666 1208.99 67.3599 1208.99 67.3599C1208.99 67.3599 1213.53 49.3571 1232.81 30.3544C1252.09 11.3518 1288.39 17.8527 1299.4 26.854C1304.81 32.6881 1314.34 49.5574 1309.15 70.3603C1309.58 91.1632 1328.82 93.0304 1338.38 91.3635L1348.13 88.8631L1355.16 85.3625L1363.28 78.3615L1375 68.5L1382.23 59.3588L1392.5 42.8564L1404.03 42.8564Z" fill="white"/>
<path d="M2793 42.7661C2793 42.7661 2799.93 36.765 2821 32C2842.07 27.235 2884 83.273 2884 83.273L2884 254.705L1389 254.704L1389 176L1389 104.5L1348 90C1348 90 1391 43.9998 1393 41.4999C1395 38.9999 1395.5 38.9998 1402.5 33.4999C1409.5 27.9999 1423 26.9999 1425 26.9999C1427 26.9999 1437.5 28.4999 1442.5 30.9999C1447.5 33.4998 1450 37.9999 1453 43.9999C1456 49.9998 1461 54.4998 1461 54.4998C1461 54.4998 1466 57.9999 1474 58.9998C1482 59.9998 1493.5 53.4998 1493.5 53.4998C1493.5 53.4998 1509.5 38.9998 1517.5 35.4999C1525.5 31.9999 1535 34.4999 1541.5 38.9999C1548 43.4998 1548 55.4999 1546.5 68.9999C1545 82.4998 1550.5 89.4999 1557 95.8655C1563.5 102.231 1575 103.5 1585 103.5C1595 103.5 1607 94.4998 1611.5 89.4998C1616 84.4999 1622 74.4998 1623 71.4999C1624 68.4999 1627.5 46.4998 1630 36.9999C1632.5 27.4999 1640.5 18.4999 1644 14.9999C1647.5 11.4999 1659.5 7.49989 1659.5 7.49989C1659.5 7.49989 1673.5 4.99992 1680 10.4999C1686.5 15.9999 1688 27.4999 1689.5 40.9999C1691 54.4998 1693.5 61.9999 1699.5 67.4999C1705.5 72.9998 1722 76.4999 1730 75.4999C1738 74.4999 1758.5 63.4998 1767 47.4999C1775.5 31.5 1781 26.4999 1786 23.4999C1791 20.4999 1791.5 18.4999 1810 16.4999C1828.5 14.4999 1846.5 38.4999 1851.5 43.4999C1856.5 48.4999 1861.5 51.4999 1870 51.9999C1878.5 52.4999 1889.5 45.4093 1889.5 45.4093C1889.5 45.4093 1905.5 24.9999 1925.5 27.4999C1945.5 29.9999 1940.5 59.9999 1940.5 69.9999C1940.5 79.9998 1951 89.9999 1951 89.9999C1951 89.9999 1974 106.5 1997.5 89.9999C2021 73.5 2021.5 42.4999 2023.5 32.6562C2025.5 22.8125 2032.5 11.9999 2041.5 5.99993C2050.5 -4.23493e-05 2055.5 -1.50004 2069.5 1.49994C2083.5 4.49993 2082.5 28.625 2083.5 36.6874C2084.5 44.7499 2086 54.4999 2090.5 58.4999C2095 62.4999 2105.5 69.4999 2123.5 68.4999C2141.5 67.4999 2157 46.9998 2167 31.4999C2177 16 2187.5 12.4999 2187.5 12.4999C2187.5 12.4999 2198 9.99994 2210 9.99994C2222 9.99994 2226.5 14.9999 2230 18.4999C2233.5 21.9999 2242 33.9999 2242 33.9999C2242 33.9999 2247.5 43.4999 2257.5 47.4999C2267.5 51.4999 2276 16.9999 2279.5 12.4999C2283 7.99997 2285.5 3.49995 2300.5 1.49996C2315.5 -0.500025 2323.5 20.4999 2323.5 20.4999C2323.5 20.4999 2326 64 2335 74.4999C2344 84.9999 2354 76.4999 2355.5 73.9999C2357 71.4999 2358.5 35.9999 2387.9 28.2639C2417.29 20.5278 2432.51 35.665 2437.7 53.2675C2450.26 71.6701 2464.23 64.2691 2469.65 58.2682C2478.85 47.7668 2503.1 29.9642 2526.49 42.7661C2549.88 55.5679 2550.67 75.7709 2548.15 84.2721C2544.54 91.2731 2542.63 105.975 2563.85 108.776C2590.27 109.576 2597.96 67.2696 2597.96 67.2696C2597.96 67.2696 2602.5 49.2668 2621.78 30.2641C2641.05 11.2614 2677.36 17.7624 2688.37 26.7636C2693.78 32.5978 2703.31 49.467 2698.11 70.27C2698.55 91.0729 2717.78 92.94 2727.35 91.2731L2737.09 88.7728L2744.13 85.2722L2752.25 78.2712L2761.45 68.2697L2771.2 59.2685L2782.57 49.2671L2793 42.7661Z" fill="white"/>
</svg>
