<svg xmlns="http://www.w3.org/2000/svg" xmlns:xlink="http://www.w3.org/1999/xlink" width="1920" zoomAndPan="magnify" viewBox="0 0 1440 1439.999935" height="1920" preserveAspectRatio="xMidYMid meet" version="1.0"><defs><clipPath id="a6eacadba4"><path d="M 79.574219 211 L 1360.574219 211 L 1360.574219 1239.425781 L 79.574219 1239.425781 Z M 79.574219 211 " clip-rule="nonzero"/></clipPath></defs><path fill="#ffffff" d="M 567.519531 504.683594 C 567.519531 440.886719 619.222656 389.183594 683.019531 389.183594 C 746.8125 389.183594 798.519531 440.886719 798.519531 504.683594 C 798.519531 568.476562 746.8125 620.183594 683.019531 620.183594 C 619.222656 620.183594 567.519531 568.476562 567.519531 504.683594 Z M 721.953125 393.957031 C 747.898438 399.132812 769.535156 423.375 769.535156 423.375 C 769.535156 423.375 770.402344 406.945312 757.414062 381.835938 C 744.425781 356.726562 737.511719 334.253906 726.261719 335.121094 C 715.007812 335.988281 710.699219 346.375 710.699219 346.375 C 710.699219 346.375 711.566406 342.035156 699.449219 340.328125 C 687.328125 338.59375 681.28125 345.507812 681.28125 345.507812 C 681.28125 345.507812 670.03125 333.386719 659.644531 349.847656 C 649.261719 366.304688 652.734375 387.914062 652.734375 387.914062 C 664.855469 382.703125 695.976562 388.78125 721.953125 393.957031 Z M 1320 1171.640625 C 1326.355469 1202.792969 1312.5 1222.386719 1288.847656 1217.765625 C 1273.195312 1214.726562 1194.921875 1205.863281 1138.414062 1198.546875 L 1148.148438 1235.652344 L 945.730469 1231.621094 L 963.027344 1066.679688 L 954.964844 1078.800781 C 954.964844 1078.800781 908.253906 1142.8125 885.746094 1149.726562 C 863.242188 1156.636719 845.386719 1139.929688 841.328125 1127.808594 C 837.265625 1115.6875 796.90625 963.457031 796.90625 963.457031 C 796.90625 963.457031 740.953125 943.277344 714.449219 936.921875 C 687.949219 930.566406 672.914062 905.210938 672.914062 905.210938 C 672.324219 895.414062 688.472656 892.53125 702.886719 892.53125 C 717.304688 892.53125 733.453125 899.445312 733.453125 899.445312 C 733.453125 899.445312 727.6875 881.558594 729.980469 872.910156 C 732.273438 864.261719 737.484375 867.734375 746.132812 881.558594 C 754.78125 895.382812 782.460938 906.359375 806.671875 910.976562 C 830.878906 915.59375 842.410156 931.746094 848.207031 943.277344 C 853.972656 954.808594 884.539062 1032.085938 884.539062 1032.085938 L 900.410156 1014.605469 C 900.097656 1011.597656 900.128906 1009.613281 900.128906 1009.613281 C 900.128906 1009.613281 926.664062 968.074219 955.492188 936.953125 C 984.320312 905.800781 1029.019531 912.15625 1029.019531 912.15625 C 1054.964844 916.496094 1066.21875 911.285156 1066.808594 897.152344 C 1062.1875 903.785156 1032.492188 899.167969 1014.328125 893.121094 C 996.164062 887.078125 981.46875 887.078125 989.25 870.617188 C 997.03125 854.1875 991.855469 813.519531 993.589844 772.878906 C 994.273438 757.007812 1000.625 743.398438 1008.097656 732.675781 C 1003.507812 738.222656 999.695312 744.144531 997.0625 750.40625 C 984.941406 778.957031 991.015625 849.011719 991.015625 849.011719 C 979.765625 855.921875 933.050781 843.835938 933.050781 843.835938 C 933.050781 843.835938 928.710938 776.351562 926.136719 743.492188 C 923.535156 710.636719 904.5 608.558594 904.5 608.558594 C 904.5 608.558594 850.007812 661.316406 836.148438 676.039062 C 822.292969 690.734375 796.78125 703.722656 796.78125 703.722656 C 796.347656 714.976562 768.667969 736.175781 749.199219 746.53125 C 729.734375 756.882812 673.9375 769.035156 673.9375 769.035156 C 673.9375 769.035156 639.777344 837.820312 637.605469 843.429688 C 635.4375 849.042969 609.058594 931.25 564.511719 943.339844 C 520.03125 955.429688 454.40625 857.101562 454.21875 856.855469 C 453.351562 859.023438 452.917969 860.292969 452.917969 860.292969 L 440.796875 845.601562 C 440.796875 845.601562 434.753906 855.984375 417.457031 872.414062 C 400.160156 888.84375 394.953125 884.535156 391.511719 879.328125 C 390.457031 877.777344 389.277344 877.09375 387.792969 877.28125 C 394.175781 879.605469 392.101562 894.886719 392.101562 894.886719 C 392.101562 894.886719 399.601562 894.300781 404.777344 903.535156 C 409.953125 912.773438 396.71875 933.511719 393.246094 940.457031 C 389.773438 947.367188 384.597656 958.34375 362.960938 960.636719 C 341.324219 962.929688 260.015625 964.664062 213.300781 958.34375 C 166.585938 951.988281 111.8125 955.460938 117.578125 907.007812 C 123.34375 858.558594 178.707031 750.4375 178.707031 750.4375 C 178.707031 750.4375 195.136719 712.371094 221.949219 686.425781 C 248.765625 660.480469 324.027344 672.570312 324.027344 672.570312 C 325.703125 685.433594 330.164062 693.894531 337.511719 700.25 C 327.871094 687.726562 324.027344 672.570312 324.027344 672.570312 C 324.027344 672.570312 336.148438 669.53125 346.097656 662.183594 C 356.050781 654.839844 358.652344 624.117188 358.652344 612.433594 C 358.652344 600.746094 343.09375 581.714844 334.878906 571.761719 C 326.664062 561.8125 336.179688 553.164062 336.179688 553.164062 C 343.09375 547.121094 345.695312 552.296875 362.558594 554.464844 C 379.421875 556.636719 393.277344 553.164062 415.316406 545.816406 C 437.386719 538.46875 455.121094 510.355469 455.121094 510.355469 C 455.121094 510.355469 455.121094 510.355469 460.730469 523.777344 C 466.339844 537.199219 468.511719 560.542969 468.511719 568.320312 C 468.511719 576.101562 472.851562 585.183594 474.988281 591.664062 C 477.160156 598.140625 476.292969 599.011719 471.515625 602.914062 C 466.773438 606.820312 464.171875 609.394531 449.011719 626.691406 C 433.886719 643.988281 400.128906 640.949219 400.128906 640.949219 C 400.128906 640.949219 392.347656 665.59375 394.363281 675.699219 C 396.378906 685.804688 416.125 688.53125 416.125 688.53125 C 470.183594 696.746094 476.261719 708.867188 496.128906 726.164062 C 516.03125 743.460938 535.0625 783.265625 535.0625 783.265625 C 534.445312 783.386719 533.886719 783.542969 533.265625 783.667969 L 561.445312 823.902344 C 561.445312 823.902344 618.976562 739.121094 625.890625 730.90625 C 631.777344 723.933594 649.230469 716.648438 668.914062 714.601562 C 640.921875 715.191406 626.167969 707.410156 626.167969 707.410156 C 631.34375 693.554688 663.644531 677.992188 663.644531 677.992188 L 673.441406 648.019531 L 688.441406 646.871094 L 696.503906 679.171875 C 701.121094 678.023438 723.59375 690.113281 723.59375 690.113281 C 723.59375 690.113281 722.449219 696.46875 717.828125 705.675781 C 713.210938 714.882812 714.359375 710.851562 679.484375 714.042969 C 703.261719 714.042969 706.730469 717.949219 713.644531 712.742188 C 720.558594 707.566406 729.207031 669.933594 741.761719 672.074219 L 727.902344 640.484375 C 750.410156 632.707031 768.574219 612.804688 768.574219 612.804688 L 754.71875 596.375 C 780.664062 578.210938 799.695312 532.363281 799.695312 532.363281 L 809.210938 567.824219 C 809.210938 567.824219 862.839844 496.902344 886.210938 475.265625 C 909.554688 453.628906 957.136719 458.835938 957.136719 458.835938 C 975.300781 457.96875 978.773438 448.453125 977.90625 434.625 C 977.035156 420.769531 964.046875 414.726562 964.046875 414.726562 C 885.3125 425.976562 888.785156 299.660156 888.785156 299.660156 C 917.921875 308.898438 1012.5 297.367188 1012.5 297.367188 L 1024.03125 338.316406 C 1024.03125 338.316406 1045.355469 328.519531 1049.976562 339.460938 C 1054.59375 350.40625 1033.824219 363.671875 1033.824219 363.671875 C 1033.824219 363.671875 1046.503906 421.917969 1051.710938 435.773438 C 1056.917969 449.628906 1073.90625 450.1875 1073.90625 450.1875 C 1073.90625 450.1875 1132.742188 448.453125 1159.554688 457.101562 C 1186.367188 465.75 1210.609375 509.859375 1210.609375 509.859375 L 1209.804688 511.9375 C 1239.683594 552.945312 1305.308594 643.152344 1315.289062 657.78125 C 1328.277344 676.816406 1329.144531 678.550781 1315.289062 708.835938 C 1301.433594 739.121094 1236.554688 804 1219.257812 818.695312 C 1205.898438 830.039062 1196.164062 844.484375 1190.027344 844.917969 C 1195.542969 856.015625 1200.222656 863.703125 1200.222656 863.703125 C 1200.222656 863.703125 1169.070312 889.648438 1150.039062 898.296875 C 1131.003906 906.945312 1130.136719 906.078125 1123.226562 890.519531 C 1122.480469 888.875 1121.890625 886.921875 1121.425781 884.84375 C 1122.046875 889.773438 1122.882812 894.640625 1124.09375 899.167969 C 1131.003906 925.113281 1158.996094 914.449219 1158.996094 914.449219 C 1158.996094 914.449219 1193.589844 919.066406 1209.183594 936.363281 C 1224.742188 953.660156 1275.519531 1067.859375 1275.519531 1067.859375 C 1275.519531 1067.859375 1313.648438 1140.519531 1320 1171.640625 Z M 343.992188 871.238281 C 345.851562 872.042969 347.585938 873.3125 349.382812 875.234375 C 350.003906 875.886719 350.40625 876.539062 350.6875 877.125 C 352.917969 873.34375 350.285156 871.421875 343.992188 871.238281 Z M 310.171875 879.265625 C 316.621094 876.816406 321.796875 874.769531 326.136719 873.25 C 324.894531 873.5 323.59375 873.777344 322.261719 874.058594 C 316.183594 875.421875 311.410156 877.714844 307.351562 880.382812 C 308.25 880.007812 309.179688 879.636719 310.171875 879.265625 Z M 323.996094 913.859375 C 327.4375 913.085938 331.28125 912.527344 335.1875 911.84375 C 334.007812 911.9375 332.863281 912.03125 331.777344 912.125 C 319.65625 912.992188 321.394531 914.726562 325.734375 902.605469 C 328.273438 895.476562 332.335938 892.222656 337.171875 888.84375 C 333.453125 890.765625 330.042969 892.875 328.617188 895.414062 C 323.996094 903.476562 313.613281 916.183594 323.996094 913.859375 Z M 415.441406 689.960938 C 412.839844 695.074219 401.800781 712.496094 371.578125 716.183594 C 396.71875 724.179688 412.125 696.65625 415.441406 689.960938 Z M 454.25 856.667969 C 454.65625 855.921875 463.488281 839.804688 474.957031 821.484375 C 463.363281 835.960938 456.855469 850.25 454.25 856.667969 Z M 769.253906 686.984375 C 759.398438 687.820312 749.632812 691.539062 749.632812 691.539062 C 750.097656 688.96875 749.726562 686.394531 748.984375 683.976562 C 748.921875 690.640625 746.628906 697.617188 746.628906 697.617188 C 746.628906 697.617188 748.269531 693.523438 769.253906 686.984375 Z M 926.324219 1056.203125 C 924.992188 1052.171875 924.308594 1048.609375 924.03125 1046.59375 C 924.402344 1050.160156 925.175781 1053.351562 926.324219 1056.203125 Z M 1091.140625 947.277344 C 1123.722656 946.871094 1142.070312 934.257812 1151.277344 924.769531 C 1142.722656 932.738281 1125.363281 943.027344 1091.140625 947.277344 Z M 1147 820.800781 C 1147.433594 822.136719 1147.652344 823.683594 1147.558594 825.605469 C 1147.773438 823.65625 1147.558594 822.105469 1147 820.800781 Z M 1056.484375 699.195312 C 1139.777344 680.660156 1169.441406 767.363281 1172.636719 794.484375 C 1173.691406 803.445312 1176.664062 813.394531 1180.324219 822.847656 C 1174.246094 798.234375 1166.589844 759.859375 1166.589844 759.859375 C 1196.007812 742.5625 1216.777344 685.464844 1216.777344 685.464844 L 1167.550781 622.289062 C 1168.203125 636.085938 1172.667969 731.1875 1172.667969 740.828125 C 1172.667969 751.210938 1166.621094 759.859375 1166.621094 759.859375 C 1146.722656 709.675781 1105.214844 688.9375 1074.929688 694.113281 C 1068.886719 695.167969 1062.683594 696.902344 1056.484375 699.195312 Z M 1015.195312 820.429688 C 1015.816406 828.863281 1018.824219 835.773438 1022.976562 841.449219 C 1020.371094 835.683594 1017.984375 828.769531 1015.195312 820.429688 Z M 1212.128906 1139.339844 L 1193.09375 1105.304688 C 1193.09375 1105.304688 1184.445312 1090.890625 1180.417969 1082.242188 C 1176.386719 1073.59375 1174.0625 1075.886719 1174.0625 1075.886719 L 1142.910156 1129.886719 Z M 1195.699219 1105.429688 C 1195.792969 1105.429688 1195.855469 1105.429688 1195.945312 1105.429688 C 1195.855469 1105.429688 1195.792969 1105.429688 1195.699219 1105.429688 Z M 1193.933594 1105.367188 C 1194.148438 1105.367188 1194.425781 1105.398438 1194.738281 1105.398438 C 1194.457031 1105.398438 1194.179688 1105.398438 1193.933594 1105.367188 Z M 1193.21875 1105.335938 C 1193.3125 1105.335938 1193.496094 1105.367188 1193.839844 1105.367188 C 1193.558594 1105.367188 1193.34375 1105.335938 1193.21875 1105.335938 Z M 1262.6875 1081.40625 C 1249.355469 1087.511719 1232.339844 1082.832031 1232.339844 1082.832031 C 1232.339844 1082.832031 1248.769531 1088.84375 1262.6875 1081.40625 Z M 873.039062 1203.941406 L 784.226562 1202.203125 C 784.226562 1202.203125 799.230469 1197.585938 793.464844 1175.671875 C 787.699219 1153.753906 751.371094 1033.234375 751.371094 1033.234375 C 751.371094 1033.234375 747.339844 1020.554688 733.484375 1020.554688 C 719.628906 1020.554688 492.410156 1017.671875 492.410156 1017.671875 C 492.410156 1017.671875 464.140625 1025.175781 465.875 1046.5 C 467.613281 1067.828125 502.207031 1200.46875 512.589844 1203.941406 C 522.976562 1207.414062 537.976562 1208.558594 537.976562 1208.558594 C 537.976562 1208.558594 537.390625 1227.59375 546.625 1231.0625 C 555.863281 1234.535156 879.390625 1233.359375 879.390625 1233.359375 C 879.390625 1233.359375 896.132812 1223.5625 894.953125 1213.179688 C 893.808594 1202.792969 873.039062 1203.941406 873.039062 1203.941406 Z M 873.039062 1203.941406 " fill-opacity="1" fill-rule="evenodd"/><path fill="#000000" d="M 315.347656 519.40625 C 319.96875 506.140625 336.675781 450.1875 408.1875 455.394531 C 479.699219 460.570312 495.261719 497.492188 505.648438 526.910156 C 516.03125 556.324219 527.5625 680.875 532.179688 705.117188 C 536.800781 729.328125 551.804688 747.210938 557.570312 767.394531 C 563.335938 787.574219 548.332031 806.605469 548.332031 806.605469 C 548.332031 806.605469 535.652344 786.425781 525.269531 767.394531 C 514.882812 748.359375 491.234375 717.207031 471.640625 703.9375 C 452.019531 690.671875 400.71875 683.171875 394.363281 675.667969 C 388.007812 668.167969 400.71875 638.191406 400.71875 638.191406 C 400.71875 638.191406 408.777344 639.929688 430.691406 634.71875 C 452.609375 629.542969 464.140625 608.773438 464.140625 608.773438 C 464.140625 608.773438 479.144531 598.390625 477.996094 594.917969 C 476.847656 591.445312 470.496094 579.914062 470.496094 579.914062 C 472.789062 561.472656 456.082031 509.550781 456.082031 509.550781 C 456.082031 509.550781 456.082031 509.550781 441.078125 525.699219 C 426.074219 541.847656 401.277344 547.613281 379.359375 553.96875 C 357.445312 560.324219 351.679688 544.175781 340.148438 551.085938 C 328.617188 558 332.085938 565.5 344.175781 582.796875 C 359.398438 604.558594 358.589844 603.566406 357.445312 627.777344 C 356.296875 651.984375 339.558594 670.460938 327.46875 672.195312 C 315.347656 673.933594 270.957031 669.902344 270.957031 669.902344 L 277.871094 641.632812 C 277.871094 641.664062 310.730469 532.644531 315.347656 519.40625 Z M 159.644531 951.058594 C 159.644531 951.058594 104.28125 1144.828125 126.785156 1231.34375 L 252.234375 1231.34375 C 252.234375 1231.34375 258.28125 1124.089844 267.796875 1107.628906 C 267.796875 1107.628906 294.609375 1222.695312 315.378906 1234.785156 L 452.050781 1234.785156 C 452.050781 1234.785156 432.148438 1188.070312 418.324219 1156.917969 C 404.46875 1125.761719 378.523438 1066.089844 372.476562 1036.675781 C 366.433594 1007.257812 361.226562 983.046875 362.960938 960.542969 C 362.929688 960.574219 245.292969 971.824219 159.644531 951.058594 Z M 1012.59375 297.367188 L 1024.125 338.316406 C 1024.125 338.316406 1040.273438 327.929688 1047.1875 334.84375 C 1054.097656 341.753906 1045.449219 358.496094 1033.917969 363.671875 L 1041.421875 390.207031 C 1041.421875 390.207031 1078.710938 371.453125 1068.511719 317.546875 C 1060.453125 274.863281 1054.65625 277.1875 1054.65625 277.1875 Z M 933.019531 843.804688 L 939.933594 955.984375 C 939.933594 955.984375 965.320312 915.625 995.296875 912.15625 C 1025.269531 908.683594 1056.421875 916.773438 1064.515625 908.683594 C 1072.605469 900.59375 1066.808594 897.152344 1066.808594 897.152344 C 1066.808594 897.152344 1028.742188 907.535156 986.058594 879.855469 L 990.957031 849.011719 Z M 906.484375 1230.476562 L 945.699219 1231.621094 L 962.996094 1066.679688 L 926.074219 1118.570312 Z M 1131.410156 899.445312 C 1131.410156 899.445312 1131.410156 913.300781 1159.089844 914.449219 C 1186.769531 915.59375 1191.390625 925.980469 1191.390625 925.980469 L 1176.386719 885.621094 Z M 1212.128906 1139.339844 L 1174.0625 1075.886719 L 1142.910156 1127.777344 Z M 1138.320312 1199.320312 L 1152.175781 1235.0625 L 1245.605469 1232.769531 L 1237.546875 1212 Z M 1138.320312 1199.320312 " fill-opacity="1" fill-rule="evenodd"/><path fill="#545454" d="M 1033.359375 225.851562 C 1045.480469 233.914062 1054.6875 277.1875 1054.6875 277.1875 C 988.351562 318.722656 888.878906 299.691406 888.878906 299.691406 C 888.878906 299.691406 888.597656 285.835938 889.746094 266.242188 C 890.894531 246.621094 897.246094 240.855469 897.246094 240.855469 C 935.902344 201.054688 1021.242188 217.761719 1033.359375 225.851562 Z M 249.042969 894.828125 C 269.222656 901.179688 280.753906 900.003906 285.375 898.296875 C 289.992188 896.5625 313.644531 878.675781 322.292969 874.089844 C 330.941406 869.46875 347.679688 863.703125 349.382812 875.234375 C 351.121094 886.765625 336.117188 889.09375 328.617188 895.414062 C 321.113281 901.769531 318.230469 910.976562 323.996094 913.859375 C 329.761719 916.742188 355.707031 908.683594 361.472656 903.476562 C 367.238281 898.296875 382.242188 878.675781 382.242188 878.675781 L 410.511719 818.136719 L 362.0625 791.601562 C 362.0625 791.601562 373.003906 769.6875 351.121094 759.300781 C 329.203125 748.917969 311.320312 767.363281 311.320312 767.363281 L 269.222656 751.800781 L 198.855469 878.675781 C 198.855469 878.675781 228.863281 888.472656 249.042969 894.828125 Z M 663.984375 391.351562 C 650.128906 393.089844 621.175781 405.613281 604.28125 416.863281 C 587.421875 428.117188 572.261719 464.445312 565.785156 487.789062 C 559.304688 511.128906 572.695312 537.976562 575.734375 545.753906 C 578.773438 553.535156 586.984375 548.792969 593.03125 543.152344 C 599.074219 537.539062 595.199219 526.289062 602.546875 525.421875 C 609.894531 524.550781 635.003906 516.773438 647.960938 509.859375 C 660.949219 502.945312 664.390625 490.828125 665.691406 478.273438 C 666.992188 465.71875 654.871094 452.761719 657.042969 439.773438 C 659.210938 426.785156 677.378906 426.351562 685.589844 413.394531 C 693.804688 400.433594 682.988281 389.152344 682.988281 389.152344 C 682.988281 389.152344 677.8125 389.648438 663.984375 391.351562 Z M 692.96875 505.550781 C 692.96875 505.550781 682.585938 517.238281 688.226562 528.890625 C 693.867188 540.546875 699.480469 544.019531 696.875 553.101562 C 694.269531 562.183594 686.925781 575.171875 699.042969 579.914062 C 711.164062 584.65625 725.425781 567.359375 730.199219 555.273438 C 734.972656 543.183594 734.941406 526.289062 738.847656 516.773438 C 742.753906 507.253906 746.628906 503.785156 737.980469 499.476562 C 729.300781 495.167969 704.191406 486.519531 692.96875 505.550781 Z M 754.375 415.160156 C 754.375 415.160156 748.765625 437.664062 758.28125 448.886719 C 767.800781 460.105469 774.277344 464.878906 776.011719 476.566406 C 777.75 488.253906 772.542969 500.777344 776.449219 510.292969 C 780.351562 519.808594 786.832031 526.722656 795.046875 516.773438 C 803.261719 506.820312 802.828125 502.914062 800.222656 488.222656 C 797.621094 473.53125 793.746094 452.761719 786.800781 445.414062 C 779.886719 438.066406 754.375 415.160156 754.375 415.160156 Z M 941.667969 564.386719 L 943.402344 597.832031 L 997.03125 589.773438 L 993.558594 557.472656 Z M 1108.902344 784.691406 L 1134.292969 765.65625 L 1121.890625 753.257812 L 1099.109375 774.894531 Z M 1030.167969 1061.347656 L 1027.71875 1046.191406 L 1005.804688 1050.375 L 1008.777344 1070.460938 Z M 1046.410156 1162.1875 L 1022.480469 1162.867188 L 1027.78125 1198.609375 L 1041.046875 1215.347656 L 1052.578125 1200.34375 Z M 1046.410156 1162.1875 " fill-opacity="1" fill-rule="evenodd"/><g clip-path="url(#a6eacadba4)"><path fill="#000000" d="M 412.746094 602.761719 C 411.96875 601.304688 412.527344 599.507812 413.984375 598.761719 C 415.164062 598.140625 416.558594 598.390625 417.457031 599.257812 L 417.765625 599.566406 C 419.347656 601.117188 421.363281 602.855469 423.253906 604.28125 C 425.207031 605.738281 427.28125 606.945312 429.421875 607.9375 C 431.5625 608.929688 433.824219 609.671875 436.179688 610.078125 C 438.535156 610.605469 440.984375 610.664062 443.558594 610.757812 L 443.835938 610.757812 C 445.261719 610.820312 446.378906 612.03125 446.316406 613.457031 C 446.285156 614.601562 445.480469 615.53125 444.457031 615.84375 C 441.605469 616.679688 438.535156 617.269531 435.4375 617.019531 C 432.335938 616.925781 429.234375 616.183594 426.351562 614.972656 C 423.46875 613.796875 420.804688 612.089844 418.511719 610.078125 C 416.15625 607.96875 414.292969 605.738281 412.746094 602.761719 Z M 454.964844 543.152344 C 452.792969 541.507812 450.066406 540.453125 447.308594 540.082031 C 444.550781 539.679688 441.757812 539.925781 439.25 540.734375 C 436.707031 541.570312 434.476562 542.78125 432.492188 544.703125 C 432.085938 545.105469 431.839844 545.722656 431.964844 546.34375 C 432.117188 547.367188 433.078125 548.050781 434.101562 547.894531 L 434.445312 547.832031 C 436.425781 547.523438 438.566406 547.179688 440.519531 547.121094 C 442.472656 547.058594 444.332031 547.210938 446.066406 547.613281 C 447.804688 548.050781 449.445312 548.574219 451.089844 549.445312 C 452.792969 550.1875 454.375 551.335938 456.296875 552.390625 L 456.609375 552.542969 C 457.289062 552.914062 458.15625 552.945312 458.902344 552.574219 C 460.171875 551.953125 460.667969 550.4375 460.078125 549.195312 C 458.871094 546.871094 457.195312 544.730469 454.964844 543.152344 Z M 1074.308594 810.449219 C 1076.851562 811.132812 1079.734375 808.621094 1080.726562 804.839844 C 1081.71875 801.058594 1080.445312 797.460938 1077.90625 796.777344 C 1075.363281 796.097656 1072.480469 798.609375 1071.488281 802.390625 C 1070.496094 806.171875 1071.769531 809.765625 1074.308594 810.449219 Z M 1043.652344 787.449219 C 1041.109375 786.765625 1038.226562 789.277344 1037.234375 793.058594 C 1036.242188 796.839844 1037.515625 800.4375 1040.054688 801.117188 C 1042.597656 801.800781 1045.480469 799.289062 1046.472656 795.507812 C 1047.464844 791.726562 1046.195312 788.128906 1043.652344 787.449219 Z M 1052.734375 810.140625 C 1052.113281 809.953125 1051.773438 809.707031 1051.371094 809.457031 C 1050.96875 809.269531 1050.410156 808.746094 1049.820312 808.496094 L 1047.402344 807.503906 C 1047.277344 807.441406 1047.125 807.410156 1046.96875 807.378906 C 1045.976562 807.257812 1045.046875 807.9375 1044.921875 808.929688 C 1044.644531 810.945312 1045.140625 812.558594 1046.285156 814.105469 C 1047.433594 815.59375 1049.140625 816.492188 1050.71875 816.957031 C 1052.363281 817.425781 1053.882812 817.394531 1055.277344 817.207031 C 1056.671875 817.019531 1057.972656 816.585938 1059.152344 816.058594 C 1060.019531 815.65625 1060.671875 814.789062 1060.730469 813.765625 C 1060.855469 812.246094 1059.710938 810.945312 1058.191406 810.820312 L 1057.910156 810.789062 C 1056.859375 810.695312 1055.867188 810.667969 1054.964844 810.605469 C 1054.097656 810.480469 1053.292969 810.386719 1052.734375 810.140625 Z M 1041.792969 834.410156 C 1044.023438 836.269531 1046.722656 837.695312 1049.605469 838.472656 C 1052.488281 839.214844 1055.523438 839.496094 1058.375 838.9375 C 1059.832031 838.8125 1061.167969 838.285156 1062.53125 837.914062 C 1063.832031 837.417969 1065.101562 836.796875 1066.3125 836.179688 C 1067.210938 835.710938 1067.738281 834.722656 1067.582031 833.667969 C 1067.367188 832.363281 1066.125 831.496094 1064.824219 831.714844 L 1064.574219 831.746094 C 1062.21875 832.148438 1059.988281 832.550781 1057.820312 832.519531 C 1055.648438 832.613281 1053.570312 832.210938 1051.585938 831.652344 C 1049.605469 831.0625 1047.742188 830.132812 1045.976562 828.925781 C 1044.273438 827.746094 1042.441406 826.164062 1041.078125 824.769531 L 1040.769531 824.429688 C 1039.964844 823.625 1038.691406 823.375 1037.609375 823.902344 C 1036.273438 824.554688 1035.714844 826.195312 1036.367188 827.558594 C 1037.761719 830.382812 1039.5 832.519531 1041.792969 834.410156 Z M 1038.132812 778.675781 L 1038.539062 778.738281 C 1039.964844 778.925781 1041.511719 779.046875 1042.816406 779.328125 C 1044.148438 779.605469 1045.328125 779.976562 1046.410156 780.441406 C 1047.464844 780.96875 1048.488281 781.464844 1049.480469 782.210938 C 1050.566406 782.859375 1051.527344 783.789062 1052.890625 784.660156 L 1053.230469 784.875 C 1053.726562 785.214844 1054.378906 785.339844 1054.996094 785.214844 C 1056.269531 784.9375 1057.105469 783.699219 1056.828125 782.394531 C 1056.421875 780.503906 1055.523438 778.675781 1054.097656 777.15625 C 1052.734375 775.636719 1050.84375 774.460938 1048.828125 773.839844 C 1046.8125 773.1875 1044.707031 773.035156 1042.753906 773.34375 C 1040.769531 773.683594 1039.003906 774.335938 1037.328125 775.578125 C 1036.988281 775.855469 1036.707031 776.257812 1036.648438 776.722656 C 1036.523438 777.683594 1037.171875 778.550781 1038.132812 778.675781 Z M 1073.9375 787.976562 L 1074.339844 788.039062 C 1075.765625 788.222656 1077.316406 788.347656 1078.617188 788.625 C 1079.953125 788.90625 1081.128906 789.277344 1082.214844 789.742188 C 1083.269531 790.269531 1084.292969 790.765625 1085.28125 791.507812 C 1086.367188 792.160156 1087.328125 793.089844 1088.691406 793.957031 L 1089.035156 794.175781 C 1089.53125 794.515625 1090.179688 794.640625 1090.800781 794.515625 C 1092.070312 794.238281 1092.910156 792.996094 1092.628906 791.695312 C 1092.226562 789.804688 1091.328125 787.976562 1089.902344 786.457031 C 1088.539062 784.9375 1086.648438 783.761719 1084.632812 783.140625 C 1082.617188 782.488281 1080.507812 782.332031 1078.554688 782.644531 C 1076.574219 782.984375 1074.804688 783.636719 1073.132812 784.875 C 1072.789062 785.15625 1072.511719 785.558594 1072.449219 786.023438 C 1072.324219 787.015625 1072.976562 787.882812 1073.9375 787.976562 Z M 1360.515625 1234.503906 C 1360.515625 1237.078125 1358.4375 1239.15625 1355.867188 1239.15625 L 84.226562 1239.15625 C 81.652344 1239.15625 79.574219 1237.078125 79.574219 1234.503906 C 79.574219 1231.933594 81.652344 1229.855469 84.226562 1229.855469 L 119.347656 1229.855469 C 105.519531 1098.484375 145.167969 981.839844 154.964844 955.644531 C 137.292969 952.605469 125.484375 946.253906 119.097656 936.238281 C 110.015625 922.011719 114.199219 903.566406 118.882812 889.09375 C 126.664062 865.007812 177.160156 731.683594 210.511719 690.363281 C 223.59375 674.148438 245.042969 668.476562 266.527344 666.804688 C 271.949219 646.683594 306.515625 519.625 323.003906 494.917969 C 333.511719 479.140625 365.503906 431.125 452.238281 457.875 C 511.070312 476.007812 518.914062 557.347656 524.679688 616.742188 C 525.269531 622.847656 525.828125 628.707031 526.445312 634.285156 L 526.941406 638.90625 C 532.800781 693.460938 535.496094 718.355469 553.507812 748.917969 C 572.664062 781.433594 556.824219 803.414062 553.972656 806.945312 C 557.195312 812.152344 559.644531 815.90625 561.382812 818.507812 C 579.917969 790.828125 604.625 754.25 615.007812 740.425781 C 622.046875 731.0625 629.269531 724.058594 637.140625 719.160156 L 622.480469 719.160156 C 620.929688 719.160156 619.503906 718.382812 618.636719 717.113281 C 617.765625 715.84375 617.613281 714.199219 618.171875 712.773438 C 618.636719 711.625 629.453125 685.589844 659.644531 676.164062 L 668.636719 649.660156 C 595.046875 642.40625 537.390625 580.195312 537.390625 504.714844 C 537.390625 443.988281 575.640625 389.089844 632.585938 368.042969 C 634.878906 367.207031 637.453125 368.289062 638.441406 370.523438 L 646.75 389.277344 C 648.023438 388.875 649.324219 388.53125 650.59375 388.160156 C 645.882812 381.339844 649.167969 368.601562 653.074219 358.558594 C 660.421875 339.648438 674.804688 338.4375 682.210938 340.578125 C 684.660156 338.035156 687.667969 336.457031 691.046875 335.960938 C 699.601562 334.75 707.601562 340.796875 709.179688 342.097656 C 712.683594 338.066406 716.589844 334.8125 720.589844 332.953125 C 726.167969 330.378906 731.808594 330.378906 736.925781 332.984375 C 752.144531 340.734375 758.191406 369.375 758.839844 372.597656 C 758.871094 372.691406 758.839844 372.785156 758.871094 372.847656 L 773.566406 423.746094 C 773.65625 424.023438 773.6875 424.304688 773.71875 424.582031 C 793.28125 446.714844 804.066406 475.078125 804.066406 504.683594 C 804.066406 511.253906 803.507812 517.703125 802.515625 523.996094 C 802.546875 524.054688 802.546875 524.085938 802.578125 524.148438 L 811.878906 556.324219 C 825.363281 538.222656 865.164062 486.238281 887.328125 472.195312 C 903.601562 461.875 929.332031 457.90625 949.976562 454.714844 C 960.144531 453.132812 972.789062 451.179688 974.960938 449.289062 C 976.914062 447.554688 975.207031 435.710938 968.328125 420.554688 C 946.164062 422.628906 927.9375 416.988281 914.140625 403.785156 C 882.027344 373.003906 885.097656 311.75 885.683594 303.566406 C 885.59375 303.132812 885.46875 302.730469 885.5 302.265625 L 887.140625 256.605469 C 887.050781 244.578125 893.402344 233.386719 903.789062 227.339844 C 933.671875 209.980469 985.003906 210.167969 1012.933594 211.84375 C 1026.015625 212.617188 1037.515625 220.988281 1042.226562 233.199219 L 1060.328125 275.234375 C 1060.484375 275.574219 1060.578125 275.914062 1060.640625 276.257812 C 1060.703125 276.378906 1060.761719 276.472656 1060.792969 276.597656 C 1061.382812 278.085938 1075.148438 313.175781 1074.371094 335.710938 C 1073.347656 366.121094 1051.992188 388.285156 1045.015625 394.730469 L 1053.695312 426.351562 C 1056.515625 434.441406 1060.578125 444.234375 1066.46875 445.632812 C 1070.464844 446.59375 1078.246094 445.972656 1087.265625 445.257812 C 1116.1875 442.964844 1159.894531 439.492188 1188.351562 474.023438 C 1212.097656 502.855469 1241.917969 546.003906 1265.910156 580.660156 C 1278.371094 598.699219 1289.160156 614.261719 1295.761719 622.972656 C 1297.0625 624.554688 1329.921875 665.191406 1328.710938 693.183594 C 1327.378906 724.117188 1216.125 827.933594 1193.714844 848.578125 C 1196.660156 853.660156 1200.195312 857.816406 1204.59375 860.667969 C 1205.835938 861.472656 1206.640625 862.804688 1206.734375 864.292969 C 1206.828125 865.78125 1206.207031 867.207031 1205.058594 868.167969 C 1204.222656 868.882812 1195.265625 876.257812 1183.019531 884.378906 L 1193.125 920.773438 C 1204.875 926.722656 1216.28125 936.394531 1225.210938 953.226562 C 1253.230469 1005.863281 1321.488281 1148.949219 1326.015625 1171.640625 C 1327.628906 1179.699219 1330.074219 1199.816406 1318.171875 1212.652344 C 1312.035156 1219.285156 1303.324219 1222.632812 1292.226562 1222.632812 C 1289.777344 1222.632812 1287.238281 1222.476562 1284.539062 1222.136719 C 1276.882812 1221.207031 1262.71875 1219.378906 1245.234375 1217.054688 L 1249.511719 1229.886719 L 1355.867188 1229.886719 C 1358.4375 1229.855469 1360.515625 1231.933594 1360.515625 1234.503906 Z M 1234.972656 1215.660156 C 1207.757812 1212.03125 1174.710938 1207.566406 1145.699219 1203.570312 L 1154.160156 1229.855469 L 1239.714844 1229.855469 Z M 1316.871094 1173.4375 C 1314.792969 1163.117188 1296.816406 1122.167969 1275.675781 1076.941406 C 1264.949219 1089.867188 1247.433594 1090.394531 1236.183594 1088.101562 C 1229.703125 1103.847656 1215.042969 1108.1875 1203.105469 1108.1875 C 1202.332031 1108.1875 1201.558594 1108.15625 1200.8125 1108.125 L 1215.382812 1132.925781 L 1241.484375 1135.867188 C 1244.023438 1136.148438 1245.886719 1138.472656 1245.574219 1141.015625 C 1245.296875 1143.554688 1243.003906 1145.417969 1240.429688 1145.105469 L 1099.726562 1129.203125 C 1095.078125 1128.675781 1091.203125 1125.269531 1090.058594 1120.742188 C 1088.074219 1112.714844 1082.679688 1092.5625 1075.394531 1079.296875 C 1068.265625 1066.277344 1054.78125 1061.9375 1034.261719 1066.0625 C 1022.140625 1068.480469 1007.878906 1076.847656 1001.402344 1080.941406 C 1003.011719 1082.398438 1006.113281 1083.699219 1012.15625 1082.367188 L 1014.050781 1081.933594 C 1028.742188 1078.644531 1038.445312 1076.507812 1054.191406 1078.832031 C 1056.207031 1079.140625 1057.789062 1080.691406 1058.097656 1082.707031 C 1058.40625 1084.722656 1057.382812 1086.707031 1055.523438 1087.605469 C 1035.4375 1097.398438 1012.160156 1110.296875 1009.617188 1114.046875 C 1008.53125 1115.90625 1008.097656 1119.59375 1008.285156 1124.183594 L 1058.34375 1099.414062 C 1060.640625 1098.269531 1063.429688 1099.230469 1064.578125 1101.523438 C 1065.722656 1103.816406 1064.761719 1106.605469 1062.46875 1107.753906 L 1009.492188 1133.945312 C 1010.175781 1137.449219 1011.167969 1141.078125 1012.40625 1144.578125 L 1067.613281 1121.980469 C 1070 1121.019531 1072.699219 1122.167969 1073.691406 1124.523438 C 1074.652344 1126.910156 1073.535156 1129.605469 1071.148438 1130.597656 L 1016.28125 1153.042969 C 1020.683594 1159.738281 1030.445312 1162.992188 1071.550781 1148.175781 C 1073.96875 1147.308594 1076.632812 1148.546875 1077.503906 1150.964844 C 1078.371094 1153.382812 1077.128906 1156.046875 1074.710938 1156.917969 C 1070.496094 1158.433594 1066.621094 1159.738281 1062.933594 1160.945312 C 1062.996094 1161.195312 1063.058594 1161.441406 1063.058594 1161.722656 C 1064.113281 1175.515625 1068.699219 1182.675781 1077.441406 1184.320312 C 1090.675781 1186.796875 1249.480469 1208.40625 1285.625 1212.804688 C 1297.28125 1214.230469 1305.929688 1212.03125 1311.292969 1206.234375 C 1317.582031 1199.570312 1319.628906 1187.265625 1316.871094 1173.4375 Z M 1040.644531 1166.867188 C 1036.242188 1167.640625 1032.339844 1168.074219 1028.988281 1168.074219 C 1028.523438 1168.074219 1028.058594 1168.046875 1027.59375 1168.046875 L 1032.523438 1198.886719 L 1039.964844 1206.792969 L 1045.820312 1197.523438 Z M 1015.878906 1098.238281 C 1021.765625 1094.640625 1028.679688 1090.859375 1035.160156 1087.480469 C 1029.269531 1088.070312 1023.441406 1089.371094 1016.09375 1091.015625 L 1014.730469 1091.324219 Z M 1011.136719 1064.757812 C 1014.792969 1062.960938 1018.699219 1061.195312 1022.699219 1059.738281 L 1021.054688 1049.847656 L 1009.246094 1052.699219 Z M 1175.332031 1083.109375 L 1151.152344 1125.671875 L 1203.851562 1131.621094 Z M 1157.445312 920.027344 C 1154.6875 925.296875 1137.113281 953.195312 1075.859375 954.839844 C 1074.433594 954.871094 1073.070312 954.902344 1071.707031 954.902344 C 1048.734375 954.902344 1033.296875 949.445312 1025.796875 938.6875 C 1020.125 930.535156 1020.558594 921.578125 1021.613281 916.183594 C 1016.652344 915.90625 1011.601562 915.75 1006.671875 915.90625 C 982.957031 916.679688 954.035156 939.589844 927.316406 978.769531 C 919.316406 990.488281 912.5625 1000.25 906.980469 1008.1875 C 906.703125 1009.921875 902.703125 1036.613281 926.945312 1041.386719 C 929.269531 1041.851562 930.878906 1043.957031 930.695312 1046.316406 C 930.695312 1046.375 930.261719 1052.917969 932.988281 1059.457031 C 936.210938 1067.175781 942.566406 1071.640625 951.773438 1072.816406 C 955.957031 1067.082031 958.808594 1063.023438 959.554688 1062 L 965.257812 1009.117188 C 965.535156 1006.574219 967.800781 1004.714844 970.371094 1004.996094 C 972.914062 1005.273438 974.773438 1007.566406 974.496094 1010.109375 L 950.75 1229.886719 L 1144.335938 1229.886719 L 1135.4375 1202.175781 C 1105.152344 1197.988281 1081.003906 1194.515625 1075.703125 1193.527344 C 1062.839844 1191.109375 1055.523438 1181.09375 1053.882812 1163.765625 C 1052.425781 1164.171875 1051.0625 1164.511719 1049.695312 1164.882812 L 1055.214844 1197.742188 C 1055.402344 1198.855469 1055.183594 1200.035156 1054.5625 1200.996094 L 1044.550781 1216.835938 C 1043.777344 1218.046875 1042.503906 1218.851562 1041.046875 1218.976562 C 1040.894531 1218.976562 1040.738281 1219.007812 1040.613281 1219.007812 C 1039.34375 1219.007812 1038.101562 1218.480469 1037.234375 1217.550781 L 1024.710938 1204.1875 C 1024.0625 1203.507812 1023.65625 1202.667969 1023.503906 1201.738281 L 1017.832031 1166.121094 C 1011.847656 1163.613281 1008.28125 1158.777344 1005.398438 1152.171875 C 999.480469 1138.566406 996.347656 1118.324219 1001.617188 1109.335938 C 1002.488281 1107.816406 1004.5625 1105.957031 1007.351562 1103.878906 L 1005.398438 1092.097656 C 1002.332031 1091.820312 999.632812 1090.953125 997.277344 1089.433594 C 992.039062 1086.054688 990.832031 1080.910156 990.707031 1080.320312 C 990.335938 1078.492188 991.078125 1076.601562 992.597656 1075.546875 C 992.96875 1075.296875 996.8125 1072.664062 1002.425781 1069.410156 L 999.324219 1049.910156 C 998.953125 1047.523438 1000.472656 1045.230469 1002.828125 1044.640625 L 1023.6875 1039.648438 C 1024.929688 1039.371094 1026.261719 1039.589844 1027.347656 1040.300781 C 1028.433594 1041.015625 1029.144531 1042.128906 1029.363281 1043.402344 L 1031.65625 1057.101562 C 1031.902344 1057.039062 1032.152344 1056.976562 1032.429688 1056.917969 C 1063.179688 1050.746094 1077.222656 1063.238281 1083.546875 1074.800781 C 1091.046875 1088.503906 1096.503906 1108.0625 1099.078125 1118.480469 C 1099.261719 1119.285156 1099.945312 1119.84375 1100.75 1119.933594 L 1141.078125 1124.492188 C 1141.109375 1124.429688 1141.109375 1124.367188 1141.140625 1124.335938 L 1169.847656 1073.808594 L 1159.058594 1055.460938 C 1157.757812 1053.257812 1158.5 1050.40625 1160.703125 1049.105469 C 1162.902344 1047.800781 1165.753906 1048.546875 1167.054688 1050.746094 L 1194.800781 1097.988281 C 1198.179688 1098.703125 1222.480469 1103.101562 1228.617188 1081.25 C 1228.960938 1080.039062 1229.765625 1079.019531 1230.882812 1078.429688 C 1231.996094 1077.839844 1233.300781 1077.683594 1234.476562 1078.089844 C 1235.53125 1078.429688 1260.609375 1085.898438 1270.960938 1067.144531 C 1251.648438 1026.164062 1230.539062 983.265625 1216.839844 957.566406 C 1201.183594 927.933594 1177.128906 923.34375 1157.445312 920.027344 Z M 941.449219 1229.855469 L 957.570312 1080.691406 C 950.566406 1090.269531 940.675781 1103.507812 930.695312 1115.78125 C 930.695312 1115.8125 930.695312 1115.8125 930.695312 1115.84375 L 919.472656 1187.417969 L 914.390625 1219.8125 L 912.808594 1229.855469 Z M 903.386719 1229.855469 L 905.183594 1218.355469 L 910.265625 1185.960938 L 919.132812 1129.453125 C 912.21875 1137.234375 905.835938 1143.617188 901.03125 1146.902344 C 891.761719 1153.226562 881.53125 1156.574219 872.046875 1156.574219 C 867.984375 1156.574219 864.078125 1155.957031 860.453125 1154.714844 C 852.363281 1151.957031 841.386719 1144.640625 835.15625 1125.484375 C 824.617188 1093.089844 796.597656 982.304688 792.320312 965.410156 C 787.824219 963.117188 774.183594 956.792969 752.113281 952.109375 C 716.835938 944.609375 693.589844 930.535156 682.894531 922.785156 C 673.347656 915.875 667.179688 909.890625 668.171875 903.011719 C 669.222656 895.878906 677.6875 892.066406 684.941406 889.558594 C 701.867188 883.667969 714.511719 888.597656 729.050781 896.191406 C 725.113281 888.222656 721.582031 878.863281 722.945312 872.972656 C 723.535156 870.429688 724.960938 868.414062 727.035156 867.175781 C 735.375 862.15625 743.09375 869.933594 751.214844 878.148438 C 755.863281 882.859375 761.164062 888.222656 767.117188 892.035156 C 777.6875 898.824219 787.421875 901.148438 799.757812 904.09375 C 805.121094 905.367188 811.195312 906.824219 817.828125 908.804688 C 842.101562 916.027344 851.214844 938.65625 865.289062 978.027344 C 871.332031 994.980469 877.84375 1011.691406 883.296875 1025.328125 C 888.195312 1018.601562 900.378906 1001.738281 919.628906 973.5 C 924.371094 966.527344 929.175781 960.109375 934.011719 954.15625 C 933.113281 938.535156 925.300781 800.53125 923.132812 767.050781 C 921.613281 743.367188 910.484375 666.152344 903.324219 617.765625 C 887.515625 635.246094 832.679688 693.832031 799.601562 703.007812 C 796.472656 719.53125 765.132812 744.980469 740.148438 753.816406 C 716.21875 762.308594 683.390625 770.863281 674.898438 773.035156 C 671.394531 780.039062 658.066406 807.132812 633.824219 860.914062 C 607.660156 919.003906 591.386719 946.964844 558.777344 946.964844 C 555.398438 946.964844 551.863281 946.65625 548.113281 946.066406 C 515.691406 940.921875 459.273438 874.058594 442.253906 853.039062 C 430.722656 875.515625 406.234375 884.378906 397.371094 886.953125 C 397.339844 887.976562 397.246094 888.96875 397.089844 889.929688 C 400.035156 891.074219 402.578125 893.460938 404.34375 896.222656 C 412.28125 901.675781 409.644531 910.386719 404.4375 924.925781 C 397.773438 947.648438 387.667969 957.535156 367.734375 962.652344 C 367.582031 964.324219 366.929688 974.214844 368.945312 1007.566406 C 371.175781 1044.363281 454.21875 1227.839844 455.058594 1229.699219 C 455.089844 1229.761719 455.089844 1229.792969 455.121094 1229.855469 L 537.976562 1229.855469 C 534.660156 1225.792969 532.675781 1220.617188 532.675781 1214.976562 L 532.675781 1213.179688 L 528.027344 1213.179688 C 515.101562 1213.179688 503.753906 1204.4375 500.46875 1191.945312 L 463.457031 1051.675781 C 461.195312 1043.058594 462.992188 1034.070312 468.449219 1027.003906 C 473.90625 1019.933594 482.117188 1015.90625 491.046875 1015.90625 L 729.207031 1015.90625 C 741.914062 1015.90625 753.199219 1024.429688 756.640625 1036.675781 L 796.222656 1176.941406 C 798.394531 1184.597656 797.277344 1192.566406 793.28125 1199.292969 L 884.785156 1199.292969 C 889.808594 1199.292969 894.332031 1201.863281 896.90625 1206.171875 C 899.480469 1210.480469 899.601562 1215.6875 897.214844 1220.121094 L 895.140625 1223.933594 C 893.960938 1226.105469 892.503906 1228.089844 890.863281 1229.855469 Z M 787.328125 1179.484375 L 747.742188 1039.214844 C 745.417969 1030.972656 737.824219 1025.234375 729.238281 1025.234375 L 491.078125 1025.234375 C 485.0625 1025.234375 479.515625 1027.964844 475.855469 1032.738281 C 472.199219 1037.511719 470.960938 1043.554688 472.507812 1049.351562 L 509.519531 1189.621094 C 511.753906 1198.050781 519.378906 1203.941406 528.089844 1203.941406 L 768.820312 1203.941406 C 774.898438 1203.941406 780.476562 1201.152344 784.136719 1196.316406 C 787.824219 1191.449219 788.96875 1185.3125 787.328125 1179.484375 Z M 542.039062 1215.007812 C 542.039062 1222.882812 548.457031 1229.296875 556.328125 1229.296875 L 870.742188 1229.296875 C 877.5625 1229.296875 883.824219 1225.578125 887.050781 1219.5625 L 889.125 1215.71875 C 890.304688 1213.550781 889.4375 1211.660156 889.03125 1210.945312 C 888.597656 1210.234375 887.359375 1208.589844 884.878906 1208.589844 L 784.476562 1208.589844 C 779.917969 1211.566406 774.554688 1213.210938 768.882812 1213.210938 L 542.070312 1213.210938 L 542.070312 1215.007812 Z M 336.023438 897.273438 C 331.5625 899.507812 328.304688 903.972656 326.632812 907.289062 C 336.148438 906.636719 353.601562 904.40625 360.203125 898.359375 C 363.644531 895.199219 366.558594 891.199219 369.410156 887.292969 C 371.796875 884.007812 374.246094 880.660156 376.910156 878.148438 C 376.972656 877.714844 377.097656 877.28125 377.3125 876.878906 L 404.871094 818.632812 L 358.746094 796.5625 C 356.605469 795.539062 355.585938 793.089844 356.359375 790.859375 C 356.636719 790.019531 363.273438 769.839844 346.9375 763.394531 C 329.730469 756.574219 317.765625 771.265625 317.238281 771.917969 C 315.9375 773.5625 313.675781 774.121094 311.753906 773.3125 L 270.679688 755.519531 L 205.058594 875.886719 C 217.671875 879.171875 247.492188 887.015625 261.875 891.789062 C 278.707031 897.398438 280.351562 897.585938 293.617188 886.703125 C 308.558594 871.855469 327.066406 866.246094 339.03125 866.246094 C 341.417969 866.246094 343.558594 866.464844 345.355469 866.898438 C 351.058594 868.230469 353.167969 871.269531 353.910156 873.5625 C 358.1875 886.179688 343.773438 893.402344 336.023438 897.273438 Z M 979.890625 881.125 C 979.917969 879.605469 980.386719 878.460938 981.59375 877.652344 C 982.277344 876.507812 984.816406 871.238281 986.089844 854.621094 C 985.871094 854.621094 985.65625 854.621094 985.4375 854.621094 C 968.882812 854.621094 946.007812 851.210938 937.390625 849.785156 C 939.527344 886.984375 941.730469 925.578125 942.785156 944.019531 C 964.484375 920.339844 986.429688 907.257812 1006.390625 906.605469 C 1015.847656 906.296875 1025.519531 907.039062 1034.074219 907.691406 C 1045.203125 908.527344 1060.390625 909.707031 1061.941406 905.984375 C 1062.097656 905.582031 1062.25 905.085938 1062.34375 904.527344 C 1011.042969 903.445312 983.515625 885.589844 982.335938 884.8125 C 981.003906 883.976562 979.859375 882.738281 979.890625 881.125 Z M 1038.539062 851.179688 C 1048.765625 858 1060.949219 858.1875 1061.074219 858.1875 C 1063.148438 858.21875 1064.980469 859.613281 1065.535156 861.597656 C 1067.210938 867.640625 1075.238281 898.296875 1070.527344 909.613281 C 1066.40625 919.53125 1051.835938 918.417969 1033.359375 916.992188 C 1032.617188 916.929688 1031.8125 916.867188 1031.035156 916.804688 C 1030.199219 920.277344 1029.269531 927.40625 1033.515625 933.449219 C 1039.5 941.945312 1054.097656 946.128906 1075.640625 945.539062 C 1107.042969 944.703125 1125.488281 936.488281 1135.40625 929.730469 C 1141.886719 925.328125 1145.636719 920.988281 1147.589844 918.261719 C 1136.925781 916.121094 1128.152344 912.960938 1123.691406 904.125 C 1123.660156 904.09375 1123.660156 904.0625 1123.628906 904.03125 C 1123.597656 903.941406 1123.535156 903.847656 1123.472656 903.753906 C 1111.847656 879.574219 1114.265625 837.480469 1114.359375 835.710938 C 1114.453125 834.285156 1115.195312 832.953125 1116.375 832.148438 C 1117.550781 831.34375 1119.039062 831.125 1120.402344 831.558594 C 1123.691406 832.582031 1133.421875 834.628906 1139.003906 831.527344 C 1141.078125 830.382812 1142.351562 828.675781 1143.03125 826.132812 C 1143.558594 824.152344 1143.464844 822.722656 1142.753906 821.980469 C 1140.429688 819.5 1131.996094 819.625 1126.820312 820.648438 C 1125.363281 820.925781 1123.875 820.523438 1122.789062 819.53125 C 1121.707031 818.539062 1121.148438 817.082031 1121.300781 815.625 L 1122.757812 800.996094 L 1045.730469 745.632812 C 1042.101562 751.027344 1035.3125 761.75 1029.609375 774.617188 C 1025.578125 783.699219 1022.695312 792.378906 1021.117188 800.375 C 1016.527344 823.3125 1022.386719 840.394531 1038.539062 851.179688 Z M 1110.019531 779.605469 L 1128.371094 764.789062 L 1121.117188 757.96875 L 1101.464844 774.242188 L 1109.554688 780.070312 C 1109.710938 779.914062 1109.863281 779.761719 1110.019531 779.605469 Z M 945.730469 1081.09375 C 927.378906 1076.476562 921.828125 1060.542969 921.394531 1049.570312 C 905.710938 1044.949219 899.511719 1032.550781 897.804688 1021.207031 C 891.574219 1029.949219 888.351562 1034.226562 888.289062 1034.320312 C 888.011719 1034.691406 887.667969 1034.96875 887.328125 1035.25 C 892.628906 1048.207031 896.253906 1056.605469 896.347656 1056.792969 C 897.371094 1059.148438 896.285156 1061.875 893.929688 1062.898438 C 891.574219 1063.921875 888.847656 1062.835938 887.824219 1060.480469 C 887.667969 1060.109375 870.867188 1021.238281 856.578125 981.1875 C 842.378906 941.417969 834.167969 923.375 815.226562 917.765625 C 808.839844 915.875 803.167969 914.511719 797.648438 913.207031 C 784.972656 910.171875 774.03125 907.566406 762.125 899.941406 C 755.304688 895.570312 749.632812 889.835938 744.644531 884.753906 C 740.023438 880.070312 734.289062 874.242188 732.027344 875.113281 C 730.757812 878.492188 736.800781 892.6875 744.890625 905.335938 C 746.039062 907.101562 745.820312 909.425781 744.394531 910.976562 C 742.96875 912.527344 740.707031 912.929688 738.816406 911.96875 C 736.058594 910.542969 733.453125 909.117188 730.941406 907.785156 C 717.179688 900.40625 707.785156 895.355469 696.625 896.4375 C 703.664062 902.019531 715.226562 910.511719 727.902344 916.992188 C 730.199219 918.167969 731.097656 920.957031 729.949219 923.253906 C 729.144531 924.863281 727.5 925.792969 725.796875 925.792969 C 725.082031 925.792969 724.371094 925.640625 723.6875 925.296875 C 706.050781 916.308594 690.921875 904.003906 685.46875 899.351562 C 677.78125 902.390625 677.347656 904.4375 677.347656 904.4375 C 677.285156 904.902344 677.5 907.535156 688.289062 915.347656 C 698.425781 922.664062 720.402344 935.992188 754.003906 943.121094 C 782.957031 949.257812 798.023438 958 798.640625 958.371094 C 799.726562 958.992188 800.503906 960.046875 800.78125 961.253906 C 801.089844 962.527344 832.863281 1088.660156 843.929688 1122.726562 C 847.960938 1135.15625 854.53125 1143 863.367188 1146.035156 C 872.757812 1149.261719 884.847656 1146.75 895.699219 1139.339844 C 907.539062 1131.25 930.726562 1101.335938 945.730469 1081.09375 Z M 1174.773438 889.558594 C 1163.152344 896.625 1149.789062 903.257812 1137.855469 905.582031 C 1142.445312 907.96875 1149.109375 909.210938 1157.820312 910.667969 C 1165.226562 911.90625 1173.628906 913.363281 1182.183594 916.214844 Z M 1194.519531 864.601562 C 1180.167969 851.492188 1175.179688 827.3125 1169.90625 801.863281 C 1163.367188 770.214844 1155.929688 734.316406 1129.269531 715.222656 C 1118.015625 707.164062 1105.804688 701.957031 1092.941406 699.785156 C 1051.308594 692.75 1011.167969 719.5625 999.574219 762.152344 C 996.039062 775.140625 994.738281 791.324219 995.605469 811.566406 C 997.371094 853.351562 994.054688 871.390625 991.078125 879.140625 C 999.820312 883.730469 1024.277344 894.453125 1062.46875 895.261719 C 1061.785156 886.953125 1059.617188 875.949219 1057.382812 867.207031 C 1052.207031 866.648438 1042.320312 864.851562 1033.359375 858.867188 C 1014.050781 846.003906 1006.671875 825.140625 1011.972656 798.546875 C 1013.707031 789.898438 1016.777344 780.566406 1021.085938 770.832031 C 1029.734375 751.335938 1040.429688 736.921875 1040.863281 736.300781 C 1042.382812 734.253906 1045.234375 733.820312 1047.308594 735.308594 L 1093.652344 768.632812 L 1118.328125 748.203125 C 1120.125 746.71875 1122.761719 746.777344 1124.464844 748.390625 L 1138.601562 761.65625 C 1139.59375 762.589844 1140.117188 763.890625 1140.058594 765.222656 C 1139.996094 766.554688 1139.375 767.828125 1138.320312 768.664062 L 1117.304688 785.652344 L 1130.324219 795.011719 C 1131.6875 795.972656 1132.398438 797.585938 1132.246094 799.257812 L 1131.097656 810.726562 C 1136.863281 810.324219 1144.984375 810.820312 1149.480469 815.59375 C 1151.589844 817.828125 1153.726562 821.886719 1151.992188 828.488281 C 1150.6875 833.449219 1147.714844 837.324219 1143.4375 839.679688 C 1136.988281 843.214844 1128.835938 842.71875 1123.410156 841.789062 C 1123.195312 853.195312 1123.535156 879.730469 1130.632812 897.027344 C 1143.496094 896.5625 1160.296875 887.789062 1174.03125 878.984375 C 1174.558594 878.398438 1175.238281 877.964844 1176.015625 877.683594 C 1183.796875 872.695312 1190.398438 867.796875 1194.519531 864.601562 Z M 1215.941406 690.453125 L 1170 632.179688 L 1174.621094 746.4375 C 1187.175781 732.738281 1204.097656 708.339844 1215.941406 690.453125 Z M 1053.507812 283.757812 C 1041.171875 289.988281 1028.554688 294.855469 1016.0625 298.542969 L 1024.183594 333.976562 C 1028.898438 330.875 1035.6875 327.558594 1042.164062 328.363281 C 1046.535156 328.890625 1050.222656 331.246094 1052.828125 335.152344 C 1055.246094 338.8125 1055.957031 342.902344 1054.875 347.054688 C 1052.546875 355.796875 1042.535156 362.773438 1037.113281 365.996094 L 1042.164062 384.441406 C 1050.101562 376.070312 1064.296875 358.0625 1065.070312 335.433594 C 1065.597656 318.847656 1056.949219 293.273438 1053.507812 283.757812 Z M 899.632812 244.980469 C 910.761719 248.265625 945.046875 254.621094 1007.414062 234.875 C 1009.957031 234.066406 1012.652344 235.460938 1013.460938 238.003906 C 1014.265625 240.546875 1012.839844 243.242188 1010.328125 244.050781 C 975.363281 255.117188 948.796875 258.308594 929.734375 258.308594 C 913.550781 258.308594 902.796875 256.015625 896.875 254.214844 C 896.8125 254.992188 896.71875 255.796875 896.75 256.605469 C 896.75 256.664062 896.75 256.757812 896.75 256.820312 L 895.261719 298.234375 C 913.335938 300.464844 986.644531 306.851562 1049.664062 274.894531 L 1033.238281 236.890625 C 1029.828125 228.023438 1021.613281 222.070312 1012.28125 221.511719 C 985.4375 219.933594 936.242188 219.652344 908.5625 235.742188 C 904.75 237.941406 901.679688 241.199219 899.632812 244.980469 Z M 972.261719 460.136719 C 1006.855469 469.777344 1042.070312 459.300781 1059.304688 452.574219 C 1052.238281 448.078125 1048.023438 438.410156 1044.832031 429.140625 L 1027.191406 364.910156 C 1026.601562 362.773438 1027.625 360.507812 1029.578125 359.519531 C 1035.097656 356.757812 1044.394531 350.25 1045.882812 344.636719 C 1046.285156 343.089844 1046.039062 341.726562 1045.109375 340.300781 C 1043.992188 338.625 1042.753906 337.820312 1041.078125 337.601562 C 1035.4375 336.859375 1026.945312 343.210938 1024.433594 345.507812 C 1023.222656 346.621094 1021.488281 346.996094 1019.90625 346.5 C 1018.328125 346.003906 1017.148438 344.699219 1016.777344 343.121094 L 1007.074219 301.054688 C 979.363281 308.183594 952.765625 310.167969 931.871094 310.167969 C 914.855469 310.167969 901.679688 308.867188 894.738281 308 C 894.242188 323.0625 894.738281 372.414062 920.558594 397.117188 C 932.925781 408.960938 949.695312 413.609375 970.496094 410.976562 C 972.480469 410.726562 974.402344 411.75 975.269531 413.546875 C 980.167969 423.589844 990.488281 447.894531 981.097656 456.261719 C 979.269531 457.875 976.417969 459.054688 972.261719 460.136719 Z M 798.054688 542.160156 C 791.265625 562.929688 779.019531 581.21875 763.023438 595.351562 L 773.84375 613.363281 C 775.050781 615.378906 774.554688 617.980469 772.726562 619.40625 C 760.949219 628.613281 748.113281 635.835938 734.507812 640.980469 L 743.652344 668.414062 C 743.714844 668.632812 743.773438 668.878906 743.804688 669.097656 C 745.667969 669.902344 747.308594 671.144531 748.578125 672.847656 C 751.371094 676.597656 752.207031 682.023438 752.269531 686.953125 C 764.824219 680.039062 777.71875 680.753906 786.179688 684.101562 C 791.667969 686.269531 795.789062 689.679688 798.054688 693.804688 C 812.0625 689.617188 833.328125 674.242188 859.988281 648.949219 C 882.304688 627.746094 900.503906 607.039062 900.65625 606.820312 C 900.9375 606.511719 901.277344 606.234375 901.617188 606.015625 C 899.078125 588.9375 897.339844 577.558594 897.277344 577.125 C 896.875 574.582031 898.640625 572.226562 901.183594 571.824219 C 903.695312 571.453125 906.082031 573.1875 906.484375 575.730469 C 907.445312 582.054688 930.199219 730.90625 932.492188 766.460938 C 933.328125 779.574219 935.066406 808.714844 936.894531 840.269531 C 943 841.292969 969.441406 845.507812 986.648438 845.292969 C 986.957031 836.582031 986.957031 825.667969 986.367188 811.9375 C 985.46875 790.703125 986.863281 773.59375 990.675781 759.675781 C 1003.507812 712.433594 1048.179688 682.738281 1094.550781 690.578125 C 1108.8125 692.996094 1122.324219 698.699219 1134.726562 707.628906 C 1149.605469 718.292969 1158.964844 733.109375 1165.476562 749.445312 L 1160.238281 619.871094 C 1160.238281 619.808594 1160.238281 619.777344 1160.238281 619.71875 L 1122.015625 571.234375 C 1120.433594 569.222656 1120.777344 566.308594 1122.789062 564.695312 C 1124.804688 563.113281 1127.71875 563.457031 1129.332031 565.46875 L 1221.394531 682.210938 C 1226.636719 674.148438 1230.046875 668.726562 1230.167969 668.539062 C 1231.53125 666.371094 1234.414062 665.6875 1236.585938 667.050781 C 1238.753906 668.414062 1239.4375 671.265625 1238.074219 673.46875 C 1236.183594 676.507812 1191.203125 748.234375 1171.054688 762.464844 C 1170.777344 762.648438 1170.496094 762.773438 1170.1875 762.898438 C 1173.9375 775.171875 1176.574219 787.820312 1179.082031 799.941406 C 1182.089844 814.449219 1185.003906 828.460938 1189.53125 839.773438 C 1283.796875 753.101562 1318.949219 704.40625 1319.445312 692.75 C 1320.496094 668.292969 1288.785156 629.109375 1288.476562 628.707031 C 1281.65625 619.71875 1270.839844 604.0625 1258.285156 585.929688 C 1234.414062 551.429688 1204.71875 508.464844 1181.222656 479.914062 C 1155.867188 449.101562 1115.074219 452.359375 1088.074219 454.496094 C 1083.390625 454.867188 1079.175781 455.210938 1075.457031 455.332031 C 1075.175781 455.582031 1074.898438 455.796875 1074.558594 455.984375 C 1073.070312 456.757812 1052.269531 467.515625 1024.214844 471.761719 C 1026.199219 490.453125 1035.035156 573.5625 1044.117188 653.785156 C 1044.394531 656.324219 1042.566406 658.652344 1040.027344 658.929688 C 1039.839844 658.960938 1039.683594 658.960938 1039.5 658.960938 C 1037.175781 658.960938 1035.160156 657.195312 1034.878906 654.839844 C 1025.828125 574.769531 1016.992188 491.820312 1014.980469 472.847656 C 1010.886719 473.21875 1006.703125 473.4375 1002.394531 473.4375 C 987.296875 473.4375 971.179688 470.894531 955.429688 463.890625 C 955.121094 463.734375 954.8125 463.578125 954.5625 463.363281 C 953.539062 463.515625 952.519531 463.671875 951.433594 463.859375 C 931.625 466.925781 906.980469 470.738281 892.351562 480.007812 C 868.355469 495.195312 819.257812 561.96875 815.195312 567.515625 L 823.410156 595.878906 C 824.121094 598.359375 822.695312 600.933594 820.25 601.644531 C 819.8125 601.769531 819.378906 601.832031 818.945312 601.832031 C 816.929688 601.832031 815.070312 600.5 814.480469 598.484375 Z M 734.074219 669.128906 L 725.703125 644.019531 C 715.378906 647.179688 704.6875 649.164062 693.714844 649.941406 L 700.378906 675.792969 C 704.996094 676.972656 713.769531 679.976562 721.300781 687.015625 C 724.496094 678.984375 728.183594 671.699219 734.074219 669.128906 Z M 571.300781 504.683594 C 571.300781 518.167969 573.6875 531.09375 578.089844 543.089844 C 582.152344 544.703125 585.589844 544.886719 587.886719 543.617188 C 591.171875 541.757812 592.347656 536.703125 592.75 532.765625 C 594.117188 519.5625 604.53125 518.726562 613.707031 517.980469 C 621.054688 517.390625 629.359375 516.710938 638.414062 511.84375 C 658.128906 501.242188 665.101562 483.789062 657.601562 463.949219 L 657.136719 462.710938 C 648.796875 440.703125 647.402344 433.167969 673.253906 421.171875 C 678.027344 418.972656 680.816406 416.027344 681.808594 412.152344 C 683.453125 405.734375 679.824219 397.675781 677.128906 393.121094 C 618.261719 396.1875 571.300781 445.074219 571.300781 504.683594 Z M 582.617188 553.628906 C 600.78125 590.765625 638.96875 616.398438 683.019531 616.398438 C 738.472656 616.398438 784.601562 575.792969 793.25 522.753906 C 791.449219 523.34375 789.527344 523.683594 787.636719 523.683594 C 786.058594 523.683594 784.476562 523.46875 782.957031 523.003906 C 775.269531 520.707031 771.207031 513.363281 772.109375 503.378906 L 772.480469 499.445312 C 774.058594 483.015625 774.867188 474.738281 761.753906 460.199219 C 744.859375 441.414062 748.921875 417.484375 749.105469 416.460938 C 749.199219 415.933594 749.386719 415.46875 749.632812 415.035156 C 731.71875 401.738281 710.109375 394.019531 687.636719 393.058594 C 690.335938 398.761719 692.8125 406.757812 690.859375 414.414062 C 689.15625 421.082031 684.570312 426.164062 677.191406 429.574219 C 657.941406 438.5 658.375 439.679688 665.84375 459.363281 L 666.308594 460.601562 C 675.515625 484.90625 666.714844 507.101562 642.8125 519.964844 C 632.058594 525.761719 621.859375 526.597656 614.449219 527.1875 C 603.878906 528.023438 602.484375 528.769531 601.988281 533.664062 C 601.058594 542.5625 597.867188 548.605469 592.441406 551.644531 C 590.023438 553.007812 587.265625 553.691406 584.289062 553.691406 C 583.730469 553.753906 583.171875 553.691406 582.617188 553.628906 Z M 794.738281 504.683594 C 794.738281 476.785156 784.382812 450.0625 765.597656 429.449219 C 763.148438 426.753906 760.578125 424.242188 757.910156 421.824219 C 757.632812 428.425781 758.375 442.59375 768.667969 454 C 784.507812 471.609375 783.359375 483.664062 781.75 500.375 L 781.375 504.25 C 781.035156 508.0625 781.46875 512.867188 785.621094 514.105469 C 788.847656 515.066406 793.15625 513.484375 794.550781 510.851562 C 794.550781 510.851562 794.550781 510.851562 794.550781 510.820312 C 794.675781 508.804688 794.738281 506.757812 794.738281 504.683594 Z M 703.230469 380.226562 C 703.445312 380.96875 703.601562 381.371094 705.523438 381 C 712.933594 379.636719 721.859375 364.632812 725.703125 355.519531 C 726.695312 353.164062 729.421875 352.046875 731.808594 353.039062 C 734.164062 354.03125 735.28125 356.757812 734.289062 359.113281 C 733.234375 361.59375 724.992188 380.410156 713.457031 387.570312 C 730.601562 392.035156 746.65625 400.28125 760.359375 411.65625 L 748.609375 371.019531 C 748.457031 370.460938 748.394531 369.871094 748.457031 369.3125 C 745.945312 360.015625 740.488281 345.226562 732.648438 341.261719 C 730.074219 339.957031 727.46875 339.988281 724.433594 341.382812 C 712.21875 347.027344 700.78125 372.476562 703.230469 380.226562 Z M 687.730469 348.390625 C 680.878906 358.679688 677.097656 378.890625 679.175781 383.230469 C 685.683594 382.207031 691.511719 375.328125 693.25 372.691406 C 693.558594 372.195312 693.960938 371.824219 694.394531 371.515625 C 695.789062 364.570312 699.105469 356.605469 703.601562 349.566406 C 703.539062 349.503906 703.445312 349.472656 703.351562 349.414062 C 701.679688 348.015625 696.410156 344.578125 692.257812 345.164062 C 691.171875 345.320312 689.433594 345.816406 687.730469 348.390625 Z M 658.3125 382.984375 C 658.34375 383.015625 660.886719 384.039062 669.132812 378.300781 C 669.222656 378.242188 669.316406 378.210938 669.410156 378.148438 C 669.566406 368.941406 673.039062 357.222656 676.820312 349.101562 C 672.789062 349.007812 666.0625 350.714844 661.691406 361.90625 C 656.296875 375.792969 657.320312 382.207031 658.3125 382.984375 Z M 683.019531 641.042969 C 712.4375 641.042969 740.242188 631.929688 763.738281 614.601562 L 755.773438 601.335938 C 735.5 616.617188 710.296875 625.699219 683.019531 625.699219 C 631.964844 625.699219 588.226562 593.894531 570.496094 549.101562 C 570.09375 548.515625 569.8125 547.863281 569.71875 547.148438 C 564.761719 533.914062 562 519.625 562 504.683594 C 562 453.875 593.464844 410.324219 637.945312 392.40625 L 631.714844 378.300781 C 580.664062 399.070312 546.6875 449.289062 546.6875 504.683594 C 546.65625 579.882812 607.816406 641.042969 683.019531 641.042969 Z M 678.214844 650.21875 L 670.03125 674.335938 L 690.425781 674.335938 L 684.226562 650.3125 C 683.824219 650.3125 683.421875 650.34375 683.019531 650.34375 C 681.40625 650.34375 679.824219 650.28125 678.214844 650.21875 Z M 630.230469 709.828125 L 710.699219 709.828125 C 710.730469 709.828125 710.761719 709.828125 710.792969 709.828125 C 711.660156 708.867188 712.46875 707.722656 713.273438 706.265625 C 714.824219 703.503906 716.25 700.125 717.613281 696.625 C 709.058594 686.425781 696.007812 684.347656 695.882812 684.316406 C 695.230469 684.222656 694.613281 683.976562 694.085938 683.636719 L 666.125 683.636719 C 665.753906 683.882812 665.320312 684.070312 664.855469 684.195312 C 645.914062 689.214844 635.21875 702.015625 630.230469 709.828125 Z M 538.691406 852.484375 C 539.496094 851.273438 546.378906 840.890625 555.800781 826.785156 C 552.390625 821.980469 544.765625 810.480469 530.507812 785.527344 C 478.710938 800.4375 460.109375 858.15625 459.925781 858.746094 C 459.863281 858.992188 459.707031 859.179688 459.582031 859.394531 C 485.03125 889.339844 526.726562 933.328125 549.632812 936.953125 C 581.683594 942.066406 595.976562 922.507812 625.394531 857.164062 C 653.941406 793.773438 667.457031 767.269531 667.582031 766.988281 C 668.203125 765.78125 669.285156 764.914062 670.589844 764.601562 C 670.992188 764.511719 709.925781 754.746094 737.078125 745.105469 C 766.03125 734.84375 792.039062 707.84375 790.582031 700.1875 C 790.054688 697.367188 787.265625 694.703125 783.113281 692.964844 C 780.941406 698.917969 774.554688 713.300781 760.605469 724.832031 C 759.738281 725.546875 758.683594 725.886719 757.632812 725.886719 C 756.296875 725.886719 754.964844 725.296875 754.035156 724.210938 C 752.394531 722.226562 752.671875 719.3125 754.65625 717.671875 C 765.96875 708.308594 771.613281 696.6875 773.84375 691.074219 C 767.488281 690.828125 759.894531 692.46875 752.703125 697.707031 C 752.394531 697.925781 752.082031 698.082031 751.742188 698.234375 C 749.945312 705.984375 743.621094 725.050781 722.820312 740.050781 C 722.015625 740.640625 721.054688 740.921875 720.09375 740.921875 C 718.636719 740.921875 717.242188 740.238281 716.3125 739 C 714.824219 736.921875 715.289062 734.007812 717.363281 732.519531 C 733.792969 720.679688 739.898438 705.921875 742.039062 698.453125 C 741.945312 697.894531 741.914062 697.335938 742.039062 696.746094 C 743.125 691.199219 743.496094 681.835938 740.984375 678.488281 C 740.488281 677.839844 739.992188 677.558594 739.21875 677.46875 C 734.878906 677.03125 730.910156 687.449219 727.78125 695.785156 C 725.796875 700.996094 723.78125 706.417969 721.238281 710.882812 C 713.488281 724.613281 702.980469 723.3125 687.140625 721.359375 C 683.917969 720.957031 680.351562 720.523438 676.386719 720.152344 C 653.105469 717.886719 637.945312 725.140625 622.292969 746.003906 C 611.597656 760.261719 584.597656 800.34375 565.84375 828.367188 C 565.597656 829.078125 565.164062 829.761719 564.542969 830.320312 C 554.128906 845.910156 546.535156 857.351562 546.316406 857.660156 C 545.417969 859.023438 543.929688 859.738281 542.441406 859.738281 C 541.542969 859.738281 540.675781 859.488281 539.867188 858.960938 C 537.886719 857.503906 537.296875 854.621094 538.691406 852.484375 Z M 276.320312 666.277344 C 287.203125 665.964844 297.773438 666.460938 306.886719 666.894531 C 318.105469 667.421875 328.738281 667.917969 332.769531 666.429688 C 346.066406 661.535156 357.195312 622.351562 352.421875 606.386719 C 350.5625 600.21875 345.480469 593.554688 340.582031 587.136719 C 332.398438 576.445312 323.933594 565.378906 329.359375 554.527344 C 333.761719 545.753906 342.75 543.304688 354.097656 547.769531 C 360.449219 550.28125 366.835938 551.242188 373.035156 550.652344 C 393.558594 548.730469 430.847656 540.207031 450.253906 504.496094 C 451.089844 502.945312 452.578125 502.015625 454.5 502.078125 C 456.265625 502.140625 457.847656 503.195312 458.558594 504.804688 C 459.148438 506.078125 472.789062 536.457031 474.121094 568.816406 L 474.371094 581.277344 C 477.839844 585.558594 482.613281 592.191406 482.613281 596.714844 C 482.613281 598.546875 482.613281 603.320312 464.976562 612.992188 C 460.453125 620.863281 454.21875 627.375 446.472656 632.363281 C 431.375 642.097656 416.898438 645.570312 403.382812 642.65625 C 399.324219 655.675781 396.65625 670.398438 398.828125 673.808594 C 400.964844 677.03125 418.757812 681.746094 430.539062 684.84375 C 442.347656 687.945312 454.59375 691.167969 464.140625 695.105469 C 493.277344 707.070312 522.167969 752.078125 536.769531 777.839844 C 541.386719 785.960938 545.292969 792.65625 548.640625 798.265625 C 552.390625 791.945312 558.652344 776.042969 545.449219 753.660156 C 526.414062 721.359375 523.65625 695.816406 517.644531 639.929688 L 517.148438 635.308594 C 516.558594 629.730469 515.96875 623.808594 515.378906 617.671875 C 509.894531 560.882812 502.359375 483.140625 449.476562 466.800781 C 377.71875 444.671875 347.339844 475.203125 330.722656 500.125 C 315.9375 522.320312 283.574219 639.523438 276.320312 666.277344 Z M 306.453125 676.164062 C 303.601562 676.039062 300.59375 675.886719 297.492188 675.761719 C 306.359375 714.105469 335.929688 728.707031 345.480469 732.457031 L 355.644531 719.5 C 329.609375 711.160156 321.609375 681.558594 320.464844 676.691406 C 316.371094 676.628906 311.691406 676.414062 306.453125 676.164062 Z M 411.070312 689.058594 C 400.285156 685.804688 393.679688 682.890625 391.046875 678.800781 C 385.09375 669.5625 393.152344 643.800781 395.757812 636.144531 C 395.914062 635.679688 396.128906 635.277344 396.410156 634.9375 C 397.433594 632.984375 399.726562 631.960938 401.925781 632.644531 C 413.859375 636.457031 427.160156 633.726562 441.449219 624.492188 C 448.269531 620.089844 453.664062 614.292969 457.507812 607.253906 C 457.941406 606.449219 458.589844 605.800781 459.398438 605.394531 C 465.378906 602.203125 471.394531 598.109375 473.160156 596.128906 C 472.386719 594.207031 469.347656 589.679688 466.21875 585.992188 C 465.535156 585.183594 465.132812 584.132812 465.101562 583.078125 L 464.820312 569.097656 C 463.984375 548.421875 457.539062 528.085938 453.476562 517.050781 C 438.070312 539.617188 415.90625 550.527344 396.8125 555.738281 L 421.023438 562.371094 C 424.988281 555.457031 432.148438 550.839844 440.332031 550.839844 C 452.824219 550.839844 462.960938 561.5625 462.960938 574.769531 C 462.960938 587.976562 452.824219 598.699219 440.332031 598.699219 C 427.839844 598.699219 417.703125 587.976562 417.703125 574.769531 C 417.703125 573.125 417.859375 571.515625 418.167969 569.933594 L 379.175781 559.269531 C 377.3125 559.519531 375.546875 559.734375 373.875 559.890625 C 366.1875 560.601562 358.375 559.425781 350.65625 556.386719 C 340.734375 552.480469 338.503906 556.976562 337.636719 558.652344 C 334.816406 564.292969 341.171875 572.628906 347.925781 581.464844 C 353.351562 588.5625 358.964844 595.878906 361.289062 603.691406 C 366.992188 622.660156 355.335938 667.980469 335.960938 675.140625 C 334.320312 675.761719 332.273438 676.132812 329.980469 676.382812 C 332.179688 684.007812 341.078125 708.804688 364.417969 712.03125 C 399.878906 716.925781 409.675781 693.058594 411.070312 689.058594 Z M 425.796875 574.769531 C 425.796875 583.511719 432.335938 590.640625 440.363281 590.640625 C 448.394531 590.640625 454.933594 583.511719 454.933594 574.769531 C 454.933594 566.027344 448.394531 558.898438 440.363281 558.898438 C 432.335938 558.898438 425.796875 565.996094 425.796875 574.769531 Z M 388.660156 720.089844 L 393.867188 735.125 C 403.226562 734.164062 430.289062 728.707031 444.921875 698.328125 C 439.496094 696.746094 433.824219 695.261719 428.214844 693.773438 C 425.300781 692.996094 422.570312 692.285156 420.03125 691.601562 C 418.882812 694.855469 411.410156 713.984375 388.660156 720.089844 Z M 187.078125 748.328125 C 197.398438 750.3125 218.726562 758.589844 240.117188 792.066406 L 264.542969 747.242188 C 265.6875 745.136719 268.261719 744.269531 270.464844 745.199219 L 312.371094 763.332031 C 319.410156 756.328125 333.636719 748.050781 350.34375 754.652344 C 367.703125 761.535156 368.664062 778.832031 366.246094 789.773438 L 413.054688 812.152344 C 415.378906 813.269531 416.339844 816.027344 415.253906 818.355469 L 388.8125 874.179688 C 388.96875 874.210938 389.15625 874.273438 389.308594 874.335938 C 391.605469 875.019531 393.464844 876.289062 394.859375 877.996094 C 403.199219 875.515625 428.769531 866.152344 436.644531 842.5625 C 437.171875 840.953125 438.566406 839.742188 440.269531 839.464844 C 441.976562 839.183594 443.679688 839.835938 444.734375 841.199219 C 446.9375 844.050781 449.664062 847.429688 452.734375 851.179688 C 458.4375 836.363281 479.113281 791.757812 525.734375 777.1875 C 502.792969 737.945312 479.234375 711.222656 460.636719 703.597656 C 458.53125 702.730469 456.265625 701.925781 453.910156 701.117188 C 434.011719 744.082031 391.046875 744.609375 390.613281 744.609375 C 388.628906 744.609375 386.863281 743.339844 386.210938 741.476562 L 379.359375 721.703125 C 377.53125 721.855469 375.640625 721.980469 373.65625 721.980469 C 371.207031 721.980469 368.574219 721.792969 365.84375 721.515625 L 350.71875 740.828125 C 349.820312 741.972656 348.453125 742.59375 347.058594 742.59375 C 346.625 742.59375 346.160156 742.53125 345.726562 742.40625 C 343.773438 741.820312 298.609375 727.777344 287.851562 675.515625 C 262.339844 675.109375 232.707031 677.652344 217.734375 696.191406 C 208.464844 707.691406 197.804688 726.628906 187.078125 748.328125 Z M 161.9375 947.304688 C 213.394531 953.628906 302.359375 961.039062 339.15625 957.660156 C 375.515625 954.34375 387.480469 949.289062 395.480469 922.632812 C 387.171875 933.945312 374.214844 946.46875 356.605469 948.730469 C 356.390625 948.761719 356.203125 948.761719 356.019531 948.761719 C 353.722656 948.761719 351.710938 947.058594 351.398438 944.703125 C 351.058594 942.160156 352.855469 939.835938 355.429688 939.496094 C 378.832031 936.488281 393.371094 909.644531 397.058594 901.988281 C 397.027344 901.925781 396.96875 901.894531 396.9375 901.832031 C 396.472656 901.027344 395.199219 899.414062 394.113281 898.792969 C 389.867188 907.320312 374.648438 933.730469 348.019531 934.9375 C 347.957031 934.9375 347.867188 934.9375 347.804688 934.9375 C 345.324219 934.9375 343.277344 932.984375 343.152344 930.503906 C 343.03125 927.933594 345.015625 925.761719 347.585938 925.640625 C 372.914062 924.492188 386.644531 892.875 386.769531 892.5625 C 386.769531 892.5625 386.769531 892.53125 386.769531 892.53125 C 387.730469 890.269531 388.722656 886.054688 387.851562 884.132812 C 387.699219 883.820312 387.480469 883.480469 386.675781 883.265625 C 384.382812 882.550781 380.414062 887.945312 376.941406 892.71875 C 373.996094 896.78125 370.617188 901.398438 366.496094 905.179688 C 354.1875 916.464844 321.734375 916.773438 321.394531 916.773438 C 318.914062 916.773438 316.835938 915.066406 316.214844 912.558594 C 314.914062 907.101562 321.546875 894.082031 331.839844 888.9375 C 343.960938 882.890625 346.003906 879.605469 345.136719 876.597656 C 344.671875 876.257812 342.9375 875.484375 339.308594 875.421875 C 339.15625 875.421875 339.03125 875.421875 338.875 875.421875 C 328.398438 875.421875 312.433594 880.9375 300.003906 893.339844 C 299.910156 893.429688 299.789062 893.554688 299.664062 893.648438 C 283.390625 907.039062 278.179688 906.945312 258.902344 900.53125 C 241.109375 894.609375 197.367188 883.417969 196.933594 883.324219 C 195.539062 882.984375 194.394531 881.992188 193.835938 880.691406 C 193.246094 879.390625 193.339844 877.871094 194.019531 876.597656 L 235.03125 801.398438 C 234.90625 801.242188 234.753906 801.085938 234.660156 800.933594 C 211.660156 762.773438 188.9375 757.785156 182.832031 757.132812 C 157.445312 810.292969 132.921875 875.824219 127.746094 891.945312 C 123.71875 904.496094 119.964844 920.277344 126.941406 931.25 C 132.367188 939.710938 144.144531 945.136719 161.9375 947.304688 Z M 128.613281 1229.265625 L 248.949219 1228.429688 C 248.980469 1207.226562 250.097656 1132.519531 264.324219 1098.917969 C 265.132812 1096.996094 267.144531 1095.851562 269.222656 1096.128906 C 271.300781 1096.40625 272.941406 1098.019531 273.222656 1100.097656 C 273.347656 1100.933594 284.96875 1183.203125 315.132812 1227.902344 C 315.132812 1227.933594 315.164062 1227.933594 315.164062 1227.964844 L 443.679688 1227.066406 C 428.492188 1193.277344 361.816406 1043 359.707031 1008.1875 C 358.125 982.117188 358.15625 969.964844 358.34375 964.695312 C 352.855469 965.625 346.78125 966.371094 339.960938 966.992188 C 333.453125 967.578125 325.359375 967.859375 316.183594 967.859375 C 273.625 967.859375 207.382812 962.1875 164.355469 957.039062 C 156.453125 977.808594 114.480469 1095.851562 128.613281 1229.265625 Z M 267.332031 1120.742188 C 258.933594 1157.628906 258.28125 1214.449219 258.28125 1229.886719 L 305.429688 1229.886719 C 284.289062 1196.59375 272.539062 1147.648438 267.332031 1120.742188 Z M 656.917969 1105.613281 C 660.824219 1113.734375 661.660156 1122.757812 659.242188 1131.03125 C 656.761719 1139.496094 651.246094 1146.160156 643.652344 1149.816406 C 639.621094 1151.738281 635.375 1152.667969 631.097656 1152.667969 C 618.914062 1152.667969 606.824219 1145.199219 600.78125 1132.675781 C 592.628906 1115.75 598.578125 1095.914062 614.078125 1088.441406 C 629.515625 1081 648.765625 1088.71875 656.917969 1105.613281 Z M 648.546875 1109.675781 C 644.117188 1100.46875 635.3125 1094.949219 626.632812 1094.949219 C 623.71875 1094.949219 620.804688 1095.570312 618.078125 1096.902344 C 607.226562 1102.144531 603.199219 1116.402344 609.117188 1128.707031 C 615.070312 1141.015625 628.710938 1146.75 639.589844 1141.511719 C 644.765625 1139 648.578125 1134.382812 650.285156 1128.492188 C 652.082031 1122.355469 651.460938 1115.6875 648.546875 1109.675781 Z M 433.730469 573.808594 L 433.886719 573.746094 C 434.910156 573.28125 435.933594 572.878906 436.894531 572.816406 C 437.855469 572.691406 438.722656 572.878906 439.527344 573.25 C 440.300781 573.621094 441.015625 574.179688 441.636719 574.925781 C 442.222656 575.605469 442.875 576.628906 443.125 577.28125 C 443.214844 577.527344 443.339844 577.777344 443.496094 577.992188 C 444.457031 579.417969 446.410156 579.792969 447.835938 578.832031 C 449.261719 577.871094 449.632812 575.917969 448.671875 574.492188 L 448.578125 574.367188 C 447.554688 572.847656 446.5625 571.886719 445.261719 570.894531 C 443.992188 569.933594 442.503906 569.160156 440.890625 568.785156 C 439.28125 568.414062 437.511719 568.507812 436.023438 569.003906 C 434.503906 569.46875 433.265625 570.304688 432.148438 571.144531 C 431.5625 571.578125 431.34375 572.382812 431.652344 573.066406 C 431.996094 573.808594 432.925781 574.179688 433.730469 573.808594 Z M 687.015625 537.074219 C 680.289062 527.589844 681.128906 515.40625 689.21875 505.300781 C 695.230469 497.800781 704.40625 492.6875 713.148438 491.972656 C 713.367188 491.972656 733.390625 490.578125 741.792969 498.453125 C 744.238281 500.746094 745.511719 503.660156 745.449219 506.851562 C 745.386719 509.734375 744.425781 512.152344 743.558594 514.292969 L 743.25 515.066406 C 740.921875 520.957031 740.335938 527.28125 739.683594 533.976562 C 739.03125 540.859375 738.351562 547.957031 735.683594 554.808594 C 731.871094 564.570312 725.019531 577.714844 714.171875 584.96875 C 711.566406 586.703125 708.59375 587.449219 705.554688 587.449219 C 700.253906 587.449219 694.828125 585.121094 691.265625 581.714844 C 685.589844 576.351562 684.570312 568.785156 688.566406 562 C 695.015625 550.992188 695.851562 549.597656 687.015625 537.074219 Z M 696.472656 511.128906 C 693.835938 514.414062 688.414062 522.972656 694.582031 531.714844 C 705.460938 547.089844 704.839844 552.699219 696.535156 566.742188 C 694.734375 569.808594 695.078125 572.601562 697.617188 574.988281 C 700.8125 577.992188 706.207031 579.078125 708.996094 577.21875 C 717.828125 571.328125 723.6875 559.921875 727.003906 551.398438 C 729.207031 545.753906 729.796875 539.585938 730.414062 533.078125 C 731.097656 526.039062 731.777344 518.753906 734.570312 511.65625 L 734.910156 510.820312 C 735.53125 509.269531 736.117188 507.84375 736.117188 506.667969 C 736.117188 506.292969 736.085938 505.859375 735.375 505.210938 C 731.902344 501.921875 720.464844 500.683594 713.863281 501.242188 C 707.601562 501.769531 700.9375 505.550781 696.472656 511.128906 Z M 965.382812 335.804688 C 962.3125 336.050781 960.144531 339.925781 960.515625 344.453125 C 960.886719 348.976562 963.675781 352.449219 966.746094 352.203125 C 969.8125 351.953125 971.984375 348.078125 971.613281 343.554688 C 971.242188 339.027344 968.449219 335.554688 965.382812 335.804688 Z M 924.152344 338.8125 C 921.085938 339.058594 918.914062 342.933594 919.289062 347.460938 C 919.660156 351.984375 922.449219 355.457031 925.519531 355.210938 C 928.585938 354.960938 930.757812 351.085938 930.382812 346.558594 C 929.980469 342.035156 927.222656 338.5625 924.152344 338.8125 Z M 934.664062 363.796875 C 935.160156 366.058594 936.304688 367.609375 938.101562 368.785156 C 939.871094 369.933594 942.070312 370.273438 943.960938 370.148438 C 945.882812 370.027344 947.527344 369.4375 949.015625 368.722656 C 950.441406 367.949219 951.710938 367.019531 952.796875 365.996094 C 953.570312 365.253906 953.941406 364.105469 953.601562 362.988281 C 953.136719 361.410156 951.496094 360.507812 949.914062 360.945312 L 949.632812 361.035156 C 948.425781 361.378906 947.339844 361.75 946.316406 362.027344 C 945.292969 362.246094 944.332031 362.460938 943.589844 362.429688 C 942.816406 362.460938 942.257812 362.308594 941.667969 362.183594 C 941.140625 362.089844 940.304688 361.6875 939.527344 361.5625 L 937.109375 361.191406 C 936.863281 361.160156 936.585938 361.160156 936.335938 361.222656 C 935.160156 361.46875 934.414062 362.617188 934.664062 363.796875 Z M 965.445312 381.246094 L 965.070312 381.433594 C 963.832031 382.054688 962.714844 382.828125 961.507812 383.417969 C 960.265625 383.914062 959.152344 384.625 957.941406 384.96875 C 955.554688 385.929688 953.105469 386.332031 950.6875 386.457031 C 948.238281 386.578125 945.789062 386.269531 943.371094 385.617188 C 940.984375 384.96875 938.414062 383.914062 936.335938 382.859375 L 935.933594 382.640625 C 934.816406 382.054688 933.390625 382.269531 932.460938 383.230469 C 931.316406 384.410156 931.375 386.269531 932.523438 387.417969 C 935.128906 389.925781 937.855469 391.570312 941.078125 392.746094 C 944.242188 393.894531 947.710938 394.421875 951.152344 394.144531 C 954.5625 393.832031 957.972656 392.996094 960.886719 391.320312 C 962.4375 390.640625 963.675781 389.554688 965.011719 388.625 C 966.25 387.570312 967.398438 386.457031 968.480469 385.308594 C 969.226562 384.535156 969.441406 383.386719 968.945312 382.363281 C 968.265625 381.125 966.714844 380.597656 965.445312 381.246094 Z M 924.464844 329.757812 C 925.859375 329.914062 927.222656 330.070312 928.648438 330.566406 C 930.105469 330.90625 931.53125 331.558594 933.328125 332.054688 L 933.703125 332.144531 C 934.382812 332.332031 935.097656 332.238281 935.746094 331.835938 C 936.957031 331.0625 937.296875 329.480469 936.523438 328.300781 C 935.3125 326.410156 933.640625 324.800781 931.5 323.714844 C 929.421875 322.597656 926.945312 322.039062 924.527344 322.132812 C 922.109375 322.195312 919.753906 322.816406 917.738281 323.902344 C 915.691406 325.015625 914.019531 326.351562 912.652344 328.332031 C 912.375 328.765625 912.25 329.292969 912.375 329.851562 C 912.621094 330.84375 913.644531 331.464844 914.636719 331.214844 L 915.039062 331.125 C 916.683594 330.71875 918.417969 330.222656 919.96875 329.976562 C 921.582031 329.726562 923.039062 329.636719 924.464844 329.757812 Z M 975.144531 321.980469 C 973.070312 320.863281 970.589844 320.304688 968.171875 320.398438 C 965.753906 320.460938 963.398438 321.078125 961.382812 322.164062 C 959.335938 323.28125 957.664062 324.613281 956.300781 326.597656 C 956.019531 327.03125 955.894531 327.558594 956.019531 328.117188 C 956.269531 329.109375 957.292969 329.726562 958.28125 329.480469 L 958.6875 329.386719 C 960.328125 328.984375 962.066406 328.488281 963.613281 328.242188 C 965.195312 327.992188 966.683594 327.929688 968.078125 328.023438 C 969.472656 328.179688 970.835938 328.332031 972.261719 328.828125 C 973.71875 329.171875 975.144531 329.820312 976.945312 330.316406 L 977.316406 330.410156 C 977.996094 330.597656 978.710938 330.503906 979.363281 330.101562 C 980.570312 329.324219 980.910156 327.746094 980.136719 326.566406 C 978.957031 324.675781 977.285156 323.0625 975.144531 321.980469 Z M 936.460938 599.878906 L 934.167969 565.285156 C 934.011719 562.835938 935.777344 560.664062 938.226562 560.355469 L 994.738281 553.441406 C 995.976562 553.289062 997.1875 553.628906 998.179688 554.402344 C 999.140625 555.179688 999.789062 556.292969 999.914062 557.503906 L 1003.945312 591.539062 C 1004.253906 594.082031 1002.457031 596.375 999.914062 596.683594 L 941.667969 604.1875 C 941.480469 604.21875 941.265625 604.21875 941.078125 604.21875 C 939.992188 604.21875 938.972656 603.847656 938.132812 603.164062 C 937.140625 602.328125 936.523438 601.148438 936.460938 599.878906 Z M 943.714844 569.035156 L 945.386719 594.328125 L 994.179688 588.035156 L 991.234375 563.207031 Z M 1055.867188 565.6875 C 1060.390625 565.6875 1064.082031 562 1064.082031 557.472656 C 1064.082031 552.945312 1060.390625 549.257812 1055.867188 549.257812 C 1051.339844 549.257812 1047.652344 552.945312 1047.652344 557.472656 C 1047.652344 562 1051.308594 565.6875 1055.867188 565.6875 Z M 1051.09375 595.941406 C 1051.09375 600.46875 1054.78125 604.15625 1059.304688 604.15625 C 1063.832031 604.15625 1067.519531 600.46875 1067.519531 595.941406 C 1067.519531 591.414062 1063.832031 587.726562 1059.304688 587.726562 C 1054.78125 587.726562 1051.09375 591.414062 1051.09375 595.941406 Z M 1051.09375 595.941406 " fill-opacity="1" fill-rule="nonzero"/></g></svg>